<svg width="1512" height="982" viewBox="0 0 1512 982" fill="none" xmlns="http://www.w3.org/2000/svg">
<rect width="1512" height="982" fill="black"/>
<mask id="mask0_63_11" style="mask-type:alpha" maskUnits="userSpaceOnUse" x="0" y="0" width="1512" height="982">
<rect width="1512" height="982" fill="#D9D9D9"/>
</mask>
<g mask="url(#mask0_63_11)">
<path d="M1614.8 491.5C1614.8 965.526 1230.3 1349.8 756 1349.8C281.698 1349.8 -102.8 965.526 -102.8 491.5C-102.8 17.4742 281.698 -366.8 756 -366.8C1230.3 -366.8 1614.8 17.4742 1614.8 491.5Z" stroke="white" stroke-width="0.4"/>
<path d="M1381.8 491.5C1381.8 728.53 1311.74 943.113 1198.49 1098.43C1085.23 1253.75 928.786 1349.8 756 1349.8C583.214 1349.8 426.769 1253.75 313.513 1098.43C200.257 943.113 130.2 728.53 130.2 491.5C130.2 254.47 200.257 39.8869 313.513 -115.433C426.769 -270.754 583.214 -366.8 756 -366.8C928.786 -366.8 1085.23 -270.754 1198.49 -115.433C1311.74 39.8869 1381.8 254.47 1381.8 491.5Z" stroke="white" stroke-width="0.4"/>
<path d="M1500.8 491.5C1500.8 965.554 1167.32 1349.8 756 1349.8C344.684 1349.8 11.2 965.554 11.2 491.5C11.2 17.4465 344.684 -366.8 756 -366.8C1167.32 -366.8 1500.8 17.4465 1500.8 491.5Z" stroke="white" stroke-width="0.4"/>
<path d="M1273.8 491.5C1273.8 728.538 1215.83 943.126 1122.11 1098.45C1028.39 1253.77 898.944 1349.8 756 1349.8C613.056 1349.8 483.61 1253.77 389.89 1098.45C296.172 943.126 238.2 728.538 238.2 491.5C238.2 254.462 296.172 39.8741 389.89 -115.448C483.61 -270.773 613.056 -366.8 756 -366.8C898.944 -366.8 1028.39 -270.773 1122.11 -115.448C1215.83 39.8741 1273.8 254.462 1273.8 491.5Z" stroke="white" stroke-width="0.4"/>
<path d="M875.8 491.5C875.8 728.562 862.369 943.177 840.655 1098.52C829.797 1176.2 816.871 1239.05 802.52 1282.47C795.344 1304.19 787.815 1321.03 780.019 1332.45C772.217 1343.87 764.181 1349.8 756 1349.8C747.819 1349.8 739.783 1343.87 731.981 1332.45C724.185 1321.03 716.656 1304.19 709.48 1282.47C695.129 1239.05 682.203 1176.2 671.345 1098.52C649.631 943.177 636.2 728.562 636.2 491.5C636.2 254.438 649.631 39.8228 671.345 -115.523C682.203 -193.198 695.129 -256.046 709.48 -299.472C716.656 -321.186 724.185 -338.032 731.981 -349.445C739.783 -360.867 747.819 -366.8 756 -366.8C764.181 -366.8 772.217 -360.867 780.019 -349.445C787.815 -338.032 795.344 -321.186 802.52 -299.472C816.871 -256.046 829.797 -193.198 840.655 -115.523C862.369 39.8228 875.8 254.438 875.8 491.5Z" stroke="white" stroke-width="0.4"/>
<path d="M786.8 491.5C786.8 728.567 783.386 943.189 777.867 1098.54C775.107 1176.22 771.821 1239.08 768.173 1282.52C766.348 1304.24 764.434 1321.1 762.45 1332.52C761.458 1338.24 760.449 1342.59 759.43 1345.5C758.919 1346.96 758.41 1348.05 757.906 1348.77C757.396 1349.5 756.925 1349.8 756.5 1349.8C756.075 1349.8 755.604 1349.5 755.094 1348.77C754.59 1348.05 754.081 1346.96 753.57 1345.5C752.551 1342.59 751.542 1338.24 750.55 1332.52C748.566 1321.1 746.652 1304.24 744.827 1282.52C741.179 1239.08 737.893 1176.22 735.133 1098.54C729.614 943.189 726.2 728.567 726.2 491.5C726.2 254.433 729.614 39.8109 735.133 -115.544C737.893 -193.222 741.179 -256.08 744.827 -299.518C746.652 -321.238 748.566 -338.097 750.55 -349.524C751.542 -355.239 752.551 -359.586 753.57 -362.502C754.081 -363.96 754.59 -365.048 755.094 -365.768C755.604 -366.495 756.075 -366.8 756.5 -366.8C756.925 -366.8 757.396 -366.495 757.906 -365.768C758.41 -365.048 758.919 -363.96 759.43 -362.502C760.449 -359.586 761.458 -355.239 762.45 -349.524C764.434 -338.097 766.348 -321.238 768.173 -299.518C771.821 -256.08 775.107 -193.222 777.867 -115.544C783.386 39.8109 786.8 254.433 786.8 491.5Z" stroke="white" stroke-width="0.4"/>
<path d="M826.8 491.5C826.8 728.565 818.909 943.184 806.152 1098.53C799.773 1176.21 792.178 1239.07 783.745 1282.5C779.529 1304.21 775.105 1321.07 770.523 1332.48C768.231 1338.19 765.905 1342.53 763.553 1345.44C761.198 1348.35 758.845 1349.8 756.5 1349.8C754.155 1349.8 751.802 1348.35 749.447 1345.44C747.095 1342.53 744.769 1338.19 742.477 1332.48C737.895 1321.07 733.471 1304.21 729.255 1282.5C720.822 1239.07 713.227 1176.21 706.848 1098.53C694.091 943.184 686.2 728.565 686.2 491.5C686.2 254.436 694.091 39.8162 706.848 -115.535C713.227 -193.211 720.822 -256.065 729.255 -299.497C733.471 -321.214 737.895 -338.066 742.477 -349.484C744.769 -355.194 747.095 -359.533 749.447 -362.442C751.802 -365.353 754.155 -366.8 756.5 -366.8C758.845 -366.8 761.198 -365.353 763.553 -362.442C765.905 -359.533 768.231 -355.194 770.523 -349.484C775.105 -338.066 779.529 -321.214 783.745 -299.497C792.178 -256.065 799.773 -193.211 806.152 -115.535C818.909 39.8162 826.8 254.436 826.8 491.5Z" stroke="white" stroke-width="0.4"/>
<path d="M935.8 491.5C935.8 728.559 915.653 943.169 883.083 1098.51C866.798 1176.18 847.409 1239.03 825.885 1282.45C815.123 1304.16 803.832 1321 792.137 1332.42C780.442 1343.83 768.357 1349.8 756 1349.8C743.643 1349.8 731.558 1343.83 719.863 1332.42C708.168 1321 696.877 1304.16 686.115 1282.45C664.591 1239.03 645.202 1176.18 628.917 1098.51C596.347 943.169 576.2 728.559 576.2 491.5C576.2 254.441 596.347 39.8308 628.917 -115.51C645.202 -193.182 664.591 -256.025 686.115 -299.446C696.877 -321.157 708.168 -338.001 719.863 -349.415C731.558 -360.829 743.643 -366.8 756 -366.8C768.357 -366.8 780.442 -360.829 792.137 -349.415C803.832 -338.001 815.123 -321.157 825.885 -299.446C847.409 -256.025 866.798 -193.182 883.083 -115.51C915.653 39.8308 935.8 254.441 935.8 491.5Z" stroke="white" stroke-width="0.4"/>
<path d="M1005.8 491.5C1005.8 728.555 977.819 943.16 932.585 1098.5C909.967 1176.16 883.039 1239 853.147 1282.42C823.25 1325.85 790.418 1349.8 756 1349.8C721.582 1349.8 688.75 1325.85 658.853 1282.42C628.961 1239 602.033 1176.16 579.415 1098.5C534.181 943.16 506.2 728.555 506.2 491.5C506.2 254.445 534.181 39.84 579.415 -115.495C602.033 -193.164 628.961 -256.004 658.853 -299.421C688.75 -342.845 721.582 -366.8 756 -366.8C790.418 -366.8 823.25 -342.845 853.147 -299.421C883.039 -256.004 909.967 -193.164 932.585 -115.495C977.819 39.84 1005.8 254.445 1005.8 491.5Z" stroke="white" stroke-width="0.4"/>
<path d="M1084.8 491.5C1084.8 728.55 1047.98 943.15 988.451 1098.48C958.688 1176.15 923.252 1238.98 883.913 1282.4C844.575 1325.82 801.349 1349.8 756 1349.8C710.651 1349.8 667.425 1325.82 628.087 1282.4C588.748 1238.98 553.312 1176.15 523.549 1098.48C464.022 943.15 427.2 728.55 427.2 491.5C427.2 254.45 464.022 39.8503 523.549 -115.48C553.312 -193.145 588.748 -255.983 628.087 -299.4C667.425 -342.818 710.651 -366.8 756 -366.8C801.349 -366.8 844.575 -342.818 883.913 -299.4C923.252 -255.983 958.688 -193.145 988.451 -115.48C1047.98 39.8503 1084.8 254.45 1084.8 491.5Z" stroke="white" stroke-width="0.4"/>
<path d="M1174.8 491.5C1174.8 728.545 1127.91 943.138 1052.1 1098.46C976.283 1253.8 871.585 1349.8 756 1349.8C640.415 1349.8 535.717 1253.8 459.902 1098.46C384.094 943.138 337.2 728.545 337.2 491.5C337.2 254.456 384.094 39.8618 459.902 -115.463C535.717 -270.802 640.415 -366.8 756 -366.8C871.585 -366.8 976.283 -270.802 1052.1 -115.463C1127.91 39.8618 1174.8 254.456 1174.8 491.5Z" stroke="white" stroke-width="0.4"/>
<path d="M755.5 1349.8C281.474 1349.8 -102.8 965.526 -102.8 491.5C-102.8 17.474 281.474 -366.8 755.5 -366.8C1229.53 -366.8 1613.8 17.4741 1613.8 491.5C1613.8 965.526 1229.53 1349.8 755.5 1349.8Z" stroke="white" stroke-width="0.4"/>
<path d="M756 1117.3C518.97 1117.3 304.387 1047.24 149.067 933.987C-6.2537 820.731 -102.3 664.286 -102.3 491.5C-102.3 318.714 -6.25368 162.269 149.067 49.0128C304.387 -64.2434 518.97 -134.3 756 -134.3C993.03 -134.3 1207.61 -64.2434 1362.93 49.0128C1518.25 162.269 1614.3 318.714 1614.3 491.5C1614.3 664.286 1518.25 820.731 1362.93 933.987C1207.61 1047.24 993.03 1117.3 756 1117.3Z" stroke="white" stroke-width="0.4"/>
<path d="M756 1236.3C281.946 1236.3 -102.3 902.816 -102.3 491.5C-102.3 80.184 281.946 -253.3 756 -253.3C1230.05 -253.3 1614.3 80.1841 1614.3 491.5C1614.3 902.816 1230.05 1236.3 756 1236.3Z" stroke="white" stroke-width="0.4"/>
<path d="M756 1009.3C518.962 1009.3 304.374 951.328 149.052 857.61C-6.27359 763.89 -102.3 634.444 -102.3 491.5C-102.3 348.556 -6.27357 219.11 149.052 125.39C304.374 31.6721 518.962 -26.3 756 -26.3C993.038 -26.3 1207.63 31.6722 1362.95 125.39C1518.27 219.11 1614.3 348.556 1614.3 491.5C1614.3 634.445 1518.27 763.89 1362.95 857.61C1207.63 951.328 993.038 1009.3 756 1009.3Z" stroke="white" stroke-width="0.4"/>
<path d="M756 611.3C518.938 611.3 304.323 597.869 148.977 576.155C71.3019 565.297 8.45348 552.371 -34.9721 538.02C-56.6862 530.844 -73.5321 523.315 -84.9456 515.519C-96.3671 507.717 -102.3 499.681 -102.3 491.5C-102.3 483.319 -96.3671 475.283 -84.9456 467.481C-73.5321 459.685 -56.6862 452.156 -34.972 444.98C8.45349 430.629 71.3019 417.703 148.977 406.845C304.323 385.131 518.938 371.7 756 371.7C993.062 371.7 1207.68 385.131 1363.02 406.845C1440.7 417.703 1503.55 430.63 1546.97 444.981C1568.69 452.156 1585.53 459.685 1596.95 467.481C1608.37 475.283 1614.3 483.319 1614.3 491.5C1614.3 499.681 1608.37 507.717 1596.95 515.519C1585.53 523.315 1568.69 530.844 1546.97 538.02C1503.55 552.371 1440.7 565.298 1363.02 576.155C1207.68 597.869 993.062 611.3 756 611.3Z" stroke="white" stroke-width="0.4"/>
<path d="M756 522.3C518.933 522.3 304.311 518.886 148.956 513.367C71.278 510.607 8.41955 507.321 -35.0181 503.673C-56.7378 501.848 -73.597 499.934 -85.0242 497.95C-90.7391 496.958 -95.0865 495.949 -98.0016 494.93C-99.4605 494.419 -100.548 493.91 -101.268 493.406C-101.995 492.896 -102.3 492.425 -102.3 492C-102.3 491.575 -101.995 491.104 -101.268 490.594C-100.548 490.09 -99.4605 489.581 -98.0016 489.07C-95.0865 488.051 -90.7391 487.042 -85.0242 486.05C-73.597 484.066 -56.7378 482.152 -35.0181 480.327C8.41956 476.679 71.278 473.393 148.956 470.633C304.311 465.114 518.933 461.7 756 461.7C993.067 461.7 1207.69 465.114 1363.04 470.633C1440.72 473.393 1503.58 476.679 1547.02 480.327C1568.74 482.152 1585.6 484.066 1597.02 486.05C1602.74 487.043 1607.09 488.051 1610 489.07C1611.46 489.581 1612.55 490.09 1613.27 490.594C1614 491.104 1614.3 491.575 1614.3 492C1614.3 492.425 1614 492.896 1613.27 493.406C1612.55 493.91 1611.46 494.419 1610 494.93C1607.09 495.95 1602.74 496.958 1597.02 497.95C1585.6 499.934 1568.74 501.848 1547.02 503.673C1503.58 507.321 1440.72 510.607 1363.04 513.367C1207.69 518.886 993.067 522.3 756 522.3Z" stroke="white" stroke-width="0.4"/>
<path d="M756 562.3C518.935 562.3 304.316 554.409 148.965 541.652C71.2887 535.273 8.43505 527.678 -34.9967 519.245C-56.7141 515.029 -73.5657 510.605 -84.9839 506.023C-90.694 503.731 -95.0335 501.405 -97.9419 499.053C-100.853 496.698 -102.3 494.345 -102.3 492C-102.3 489.655 -100.853 487.302 -97.9419 484.947C-95.0334 482.595 -90.694 480.269 -84.9839 477.977C-73.5657 473.395 -56.7141 468.971 -34.9967 464.755C8.43506 456.322 71.2887 448.727 148.965 442.348C304.316 429.591 518.935 421.7 756 421.7C993.065 421.7 1207.68 429.591 1363.03 442.348C1440.71 448.727 1503.56 456.322 1547 464.755C1568.71 468.971 1585.57 473.395 1596.98 477.977C1602.69 480.269 1607.03 482.595 1609.94 484.947C1612.85 487.302 1614.3 489.655 1614.3 492C1614.3 494.345 1612.85 496.699 1609.94 499.053C1607.03 501.405 1602.69 503.731 1596.98 506.023C1585.57 510.605 1568.71 515.029 1547 519.246C1503.56 527.678 1440.71 535.273 1363.03 541.652C1207.68 554.409 993.065 562.3 756 562.3Z" stroke="white" stroke-width="0.4"/>
<path d="M756 671.3C518.941 671.3 304.331 651.153 148.99 618.583C71.3179 602.298 8.47448 582.909 -34.9461 561.385C-56.6566 550.623 -73.501 539.332 -84.9152 527.637C-96.3287 515.942 -102.3 503.857 -102.3 491.5C-102.3 479.143 -96.3287 467.058 -84.9152 455.363C-73.501 443.668 -56.6566 432.377 -34.946 421.615C8.47448 400.091 71.3179 380.702 148.99 364.417C304.331 331.847 518.941 311.7 756 311.7C993.059 311.7 1207.67 331.847 1363.01 364.417C1440.68 380.702 1503.53 400.091 1546.95 421.615C1568.66 432.377 1585.5 443.668 1596.92 455.363C1608.33 467.058 1614.3 479.143 1614.3 491.5C1614.3 503.857 1608.33 515.942 1596.92 527.637C1585.5 539.332 1568.66 550.623 1546.95 561.385C1503.53 582.909 1440.68 602.298 1363.01 618.584C1207.67 651.154 993.059 671.3 756 671.3Z" stroke="white" stroke-width="0.4"/>
<path d="M756 741.3C518.945 741.3 304.34 713.319 149.005 668.085C71.3358 645.467 8.49632 618.539 -34.9214 588.647C-78.3454 558.75 -102.3 525.918 -102.3 491.5C-102.3 457.082 -78.3453 424.25 -34.9214 394.353C8.49633 364.461 71.3358 337.533 149.005 314.915C304.34 269.681 518.945 241.7 756 241.7C993.055 241.7 1207.66 269.681 1363 314.915C1440.66 337.533 1503.5 364.461 1546.92 394.354C1590.35 424.25 1614.3 457.082 1614.3 491.5C1614.3 525.918 1590.35 558.75 1546.92 588.647C1503.5 618.539 1440.66 645.467 1363 668.085C1207.66 713.319 993.055 741.3 756 741.3Z" stroke="white" stroke-width="0.4"/>
<path d="M756 820.3C518.95 820.3 304.35 783.478 149.02 723.951C71.3548 694.188 8.51719 658.752 -34.9005 619.413C-78.3183 580.075 -102.3 536.849 -102.3 491.5C-102.3 446.151 -78.3182 402.925 -34.9005 363.587C8.5172 324.248 71.3549 288.812 149.02 259.049C304.35 199.522 518.95 162.7 756 162.7C993.05 162.7 1207.65 199.522 1362.98 259.049C1440.65 288.812 1503.48 324.248 1546.9 363.587C1590.32 402.925 1614.3 446.151 1614.3 491.5C1614.3 536.849 1590.32 580.075 1546.9 619.413C1503.48 658.752 1440.65 694.188 1362.98 723.951C1207.65 783.478 993.05 820.3 756 820.3Z" stroke="white" stroke-width="0.4"/>
<path d="M756 910.3C518.955 910.3 304.362 863.406 149.036 787.598C-6.30203 711.783 -102.3 607.085 -102.3 491.5C-102.3 375.915 -6.30201 271.217 149.036 195.402C304.362 119.594 518.955 72.7 756 72.7C993.045 72.7 1207.64 119.594 1362.96 195.402C1518.3 271.217 1614.3 375.916 1614.3 491.5C1614.3 607.085 1518.3 711.783 1362.96 787.598C1207.64 863.406 993.045 910.3 756 910.3Z" stroke="white" stroke-width="0.4"/>
<path d="M756.5 1350V-367" stroke="white" stroke-width="0.4"/>
<path d="M-102 491.5L1615 491.5" stroke="white" stroke-width="0.4"/>
</g>
</svg>
