<svg width="257" height="39" viewBox="0 0 257 39" fill="none" xmlns="http://www.w3.org/2000/svg">
<path d="M28.6195 27.308C26.8155 27.308 25.3708 26.78 24.2855 25.724C23.2148 24.6533 22.6795 23.0913 22.6795 21.038V17.562C22.6795 15.5087 23.2148 13.954 24.2855 12.898C25.3708 11.8273 26.8155 11.292 28.6195 11.292C30.4088 11.292 31.7728 11.798 32.7115 12.81C33.6648 13.8073 34.1415 15.1713 34.1415 16.902V17.012H32.7335V16.858C32.7335 15.5967 32.3962 14.57 31.7215 13.778C31.0615 12.9713 30.0275 12.568 28.6195 12.568C27.1968 12.568 26.0822 13.0007 25.2755 13.866C24.4835 14.7313 24.0875 15.9487 24.0875 17.518V21.082C24.0875 22.6513 24.4835 23.8687 25.2755 24.734C26.0822 25.5993 27.1968 26.032 28.6195 26.032C30.0275 26.032 31.0615 25.636 31.7215 24.844C32.3962 24.0373 32.7335 23.0033 32.7335 21.742V21.412H34.1415V21.698C34.1415 23.4287 33.6648 24.8 32.7115 25.812C31.7728 26.8093 30.4088 27.308 28.6195 27.308ZM37.3012 27V11.6H38.6212V18.178H38.8852C39.0612 17.826 39.3032 17.496 39.6112 17.188C39.9339 16.8653 40.3446 16.6087 40.8432 16.418C41.3566 16.2127 41.9946 16.11 42.7572 16.11C43.5346 16.11 44.2459 16.2713 44.8912 16.594C45.5366 16.9167 46.0499 17.4007 46.4312 18.046C46.8272 18.6913 47.0252 19.5053 47.0252 20.488V27H45.7052V20.576C45.7052 19.4027 45.4119 18.5667 44.8252 18.068C44.2386 17.5547 43.4539 17.298 42.4712 17.298C41.3712 17.298 40.4546 17.6573 39.7212 18.376C38.9879 19.0947 38.6212 20.1873 38.6212 21.654V27H37.3012ZM54.0499 27.308C53.3019 27.308 52.6199 27.1833 52.0039 26.934C51.4026 26.67 50.9259 26.2887 50.5739 25.79C50.2219 25.2913 50.0459 24.69 50.0459 23.986C50.0459 23.2673 50.2219 22.6733 50.5739 22.204C50.9259 21.7347 51.4026 21.3827 52.0039 21.148C52.6053 20.9133 53.2726 20.796 54.0059 20.796H57.9219V19.938C57.9219 19.0727 57.6726 18.398 57.1739 17.914C56.6753 17.43 55.9493 17.188 54.9959 17.188C54.0573 17.188 53.3093 17.4227 52.7519 17.892C52.2093 18.3467 51.8426 18.9627 51.6519 19.74L50.3759 19.366C50.5519 18.7353 50.8306 18.1707 51.2119 17.672C51.5933 17.1587 52.0993 16.7553 52.7299 16.462C53.3606 16.154 54.1159 16 54.9959 16C56.3453 16 57.3866 16.352 58.1199 17.056C58.8679 17.76 59.2419 18.7427 59.2419 20.004V25.196C59.2419 25.636 59.4473 25.856 59.8579 25.856H60.8919V27H59.4839C59.0293 27 58.6699 26.868 58.4059 26.604C58.1419 26.3253 58.0099 25.9513 58.0099 25.482V25.328H57.7899C57.5993 25.6507 57.3499 25.966 57.0419 26.274C56.7486 26.582 56.3599 26.8313 55.8759 27.022C55.3919 27.2127 54.7833 27.308 54.0499 27.308ZM54.1379 26.12C55.2673 26.12 56.1766 25.7827 56.8659 25.108C57.5699 24.4187 57.9219 23.4507 57.9219 22.204V21.94H54.0279C53.2653 21.94 52.6273 22.1087 52.1139 22.446C51.6153 22.7687 51.3659 23.2747 51.3659 23.964C51.3659 24.6533 51.6226 25.1887 52.1359 25.57C52.6639 25.9367 53.3313 26.12 54.1379 26.12ZM63.4048 27V16.308H64.6808V18.288H64.9448C65.2088 17.716 65.6414 17.21 66.2428 16.77C66.8441 16.3153 67.7168 16.088 68.8608 16.088C69.6381 16.088 70.3494 16.2493 70.9948 16.572C71.6401 16.8947 72.1534 17.386 72.5348 18.046C72.9308 18.6913 73.1288 19.5053 73.1288 20.488V27H71.8088V20.576C71.8088 19.4027 71.5154 18.5593 70.9288 18.046C70.3421 17.5327 69.5574 17.276 68.5748 17.276C67.4748 17.276 66.5581 17.6427 65.8248 18.376C65.0914 19.0947 64.7248 20.1873 64.7248 21.654V27H63.4048ZM76.3475 21.698V21.434C76.3475 20.3047 76.5748 19.3367 77.0295 18.53C77.4988 17.7233 78.1221 17.1 78.8995 16.66C79.6768 16.22 80.5421 16 81.4955 16C82.6688 16 83.5781 16.2347 84.2235 16.704C84.8835 17.1587 85.3675 17.6793 85.6755 18.266H85.9395V16.308H87.1715V29.728C87.1715 30.256 87.0321 30.6667 86.7535 30.96C86.4748 31.2533 86.0495 31.4 85.4775 31.4H78.1735V30.212H85.2135C85.6681 30.212 85.8955 29.992 85.8955 29.552V24.954H85.6315C85.4408 25.306 85.1695 25.6507 84.8175 25.988C84.4801 26.3253 84.0401 26.604 83.4975 26.824C82.9548 27.0293 82.2875 27.132 81.4955 27.132C80.5421 27.132 79.6695 26.912 78.8775 26.472C78.1001 26.032 77.4841 25.4087 77.0295 24.602C76.5748 23.7807 76.3475 22.8127 76.3475 21.698ZM81.8035 25.944C83.0208 25.944 84.0035 25.5627 84.7515 24.8C85.5141 24.0373 85.8955 22.9887 85.8955 21.654V21.478C85.8955 20.1287 85.5141 19.08 84.7515 18.332C84.0035 17.5693 83.0208 17.188 81.8035 17.188C80.6008 17.188 79.6181 17.5693 78.8555 18.332C78.0928 19.08 77.7115 20.1287 77.7115 21.478V21.654C77.7115 22.9887 78.0928 24.0373 78.8555 24.8C79.6181 25.5627 80.6008 25.944 81.8035 25.944ZM95.9617 27.308C94.8617 27.308 93.901 27.0807 93.0797 26.626C92.273 26.1567 91.6423 25.504 91.1877 24.668C90.733 23.832 90.5057 22.8713 90.5057 21.786V21.522C90.5057 20.422 90.733 19.4613 91.1877 18.64C91.6423 17.804 92.2657 17.1587 93.0577 16.704C93.8643 16.2347 94.781 16 95.8077 16C96.805 16 97.685 16.2127 98.4477 16.638C99.225 17.0487 99.8337 17.65 100.274 18.442C100.714 19.2193 100.934 20.1507 100.934 21.236V21.94H91.8257C91.8697 23.2747 92.273 24.3087 93.0357 25.042C93.813 25.7607 94.7883 26.12 95.9617 26.12C96.959 26.12 97.729 25.8927 98.2717 25.438C98.829 24.9833 99.2543 24.426 99.5477 23.766L100.736 24.294C100.516 24.778 100.208 25.2547 99.8117 25.724C99.4303 26.1787 98.9317 26.56 98.3157 26.868C97.6997 27.1613 96.915 27.308 95.9617 27.308ZM91.8477 20.796H99.5917C99.533 19.6373 99.159 18.75 98.4697 18.134C97.7803 17.5033 96.893 17.188 95.8077 17.188C94.737 17.188 93.8497 17.5033 93.1457 18.134C92.4417 18.75 92.009 19.6373 91.8477 20.796ZM108.974 27V25.724H111.174V12.876H108.974V11.6H116.608C117.488 11.6 118.273 11.7613 118.962 12.084C119.651 12.4067 120.187 12.8613 120.568 13.448C120.964 14.02 121.162 14.6873 121.162 15.45V15.626C121.162 16.3447 121.023 16.9387 120.744 17.408C120.465 17.8773 120.128 18.244 119.732 18.508C119.336 18.772 118.947 18.9627 118.566 19.08V19.344C118.947 19.432 119.336 19.6153 119.732 19.894C120.143 20.158 120.48 20.5247 120.744 20.994C121.023 21.4633 121.162 22.0573 121.162 22.776V22.996C121.162 23.832 120.957 24.5507 120.546 25.152C120.15 25.7533 119.6 26.2153 118.896 26.538C118.207 26.846 117.422 27 116.542 27H108.974ZM112.582 25.724H116.41C117.51 25.724 118.339 25.4673 118.896 24.954C119.468 24.4407 119.754 23.7513 119.754 22.886V22.71C119.754 21.8447 119.468 21.1553 118.896 20.642C118.339 20.1287 117.51 19.872 116.41 19.872H112.582V25.724ZM112.582 18.596H116.498C117.51 18.596 118.302 18.3467 118.874 17.848C119.461 17.3347 119.754 16.6673 119.754 15.846V15.626C119.754 14.8047 119.461 14.1447 118.874 13.646C118.302 13.1327 117.51 12.876 116.498 12.876H112.582V18.596ZM127.655 27.308C126.907 27.308 126.225 27.1833 125.609 26.934C125.008 26.67 124.531 26.2887 124.179 25.79C123.827 25.2913 123.651 24.69 123.651 23.986C123.651 23.2673 123.827 22.6733 124.179 22.204C124.531 21.7347 125.008 21.3827 125.609 21.148C126.211 20.9133 126.878 20.796 127.611 20.796H131.527V19.938C131.527 19.0727 131.278 18.398 130.779 17.914C130.281 17.43 129.555 17.188 128.601 17.188C127.663 17.188 126.915 17.4227 126.357 17.892C125.815 18.3467 125.448 18.9627 125.257 19.74L123.981 19.366C124.157 18.7353 124.436 18.1707 124.817 17.672C125.199 17.1587 125.705 16.7553 126.335 16.462C126.966 16.154 127.721 16 128.601 16C129.951 16 130.992 16.352 131.725 17.056C132.473 17.76 132.847 18.7427 132.847 20.004V25.196C132.847 25.636 133.053 25.856 133.463 25.856H134.497V27H133.089C132.635 27 132.275 26.868 132.011 26.604C131.747 26.3253 131.615 25.9513 131.615 25.482V25.328H131.395C131.205 25.6507 130.955 25.966 130.647 26.274C130.354 26.582 129.965 26.8313 129.481 27.022C128.997 27.2127 128.389 27.308 127.655 27.308ZM127.743 26.12C128.873 26.12 129.782 25.7827 130.471 25.108C131.175 24.4187 131.527 23.4507 131.527 22.204V21.94H127.633C126.871 21.94 126.233 22.1087 125.719 22.446C125.221 22.7687 124.971 23.2747 124.971 23.964C124.971 24.6533 125.228 25.1887 125.741 25.57C126.269 25.9367 126.937 26.12 127.743 26.12ZM141.572 27.308C140.531 27.308 139.599 27.088 138.778 26.648C137.971 26.1933 137.333 25.548 136.864 24.712C136.395 23.876 136.16 22.8933 136.16 21.764V21.544C136.16 20.4 136.395 19.4173 136.864 18.596C137.333 17.76 137.971 17.122 138.778 16.682C139.599 16.2273 140.531 16 141.572 16C142.599 16 143.464 16.198 144.168 16.594C144.887 16.9753 145.444 17.4813 145.84 18.112C146.251 18.728 146.507 19.3807 146.61 20.07L145.312 20.334C145.239 19.762 145.055 19.2413 144.762 18.772C144.469 18.288 144.058 17.9067 143.53 17.628C143.002 17.3347 142.349 17.188 141.572 17.188C140.795 17.188 140.098 17.3713 139.482 17.738C138.866 18.09 138.375 18.596 138.008 19.256C137.656 19.9013 137.48 20.6713 137.48 21.566V21.742C137.48 22.6367 137.656 23.414 138.008 24.074C138.375 24.7193 138.866 25.2253 139.482 25.592C140.098 25.944 140.795 26.12 141.572 26.12C142.745 26.12 143.64 25.8193 144.256 25.218C144.872 24.602 145.253 23.854 145.4 22.974L146.698 23.238C146.566 23.9273 146.287 24.5873 145.862 25.218C145.451 25.834 144.887 26.34 144.168 26.736C143.464 27.1173 142.599 27.308 141.572 27.308ZM149.944 27V11.6H151.264V20.884H151.528L157.006 16.308H158.942L152.606 21.522L159.118 27H157.204L151.528 22.182H151.264V27H149.944ZM160.459 21.698V21.434C160.459 20.3047 160.686 19.3367 161.141 18.53C161.61 17.7233 162.233 17.1 163.011 16.66C163.788 16.22 164.653 16 165.607 16C166.78 16 167.689 16.2347 168.335 16.704C168.995 17.1587 169.479 17.6793 169.787 18.266H170.051V16.308H171.283V29.728C171.283 30.256 171.143 30.6667 170.865 30.96C170.586 31.2533 170.161 31.4 169.589 31.4H162.285V30.212H169.325C169.779 30.212 170.007 29.992 170.007 29.552V24.954H169.743C169.552 25.306 169.281 25.6507 168.929 25.988C168.591 26.3253 168.151 26.604 167.609 26.824C167.066 27.0293 166.399 27.132 165.607 27.132C164.653 27.132 163.781 26.912 162.989 26.472C162.211 26.032 161.595 25.4087 161.141 24.602C160.686 23.7807 160.459 22.8127 160.459 21.698ZM165.915 25.944C167.132 25.944 168.115 25.5627 168.863 24.8C169.625 24.0373 170.007 22.9887 170.007 21.654V21.478C170.007 20.1287 169.625 19.08 168.863 18.332C168.115 17.5693 167.132 17.188 165.915 17.188C164.712 17.188 163.729 17.5693 162.967 18.332C162.204 19.08 161.823 20.1287 161.823 21.478V21.654C161.823 22.9887 162.204 24.0373 162.967 24.8C163.729 25.5627 164.712 25.944 165.915 25.944ZM175.145 27V16.308H176.421V17.65H176.685C176.89 17.166 177.191 16.814 177.587 16.594C177.998 16.374 178.562 16.264 179.281 16.264H180.535V17.496H179.127C178.32 17.496 177.675 17.7233 177.191 18.178C176.707 18.6327 176.465 19.344 176.465 20.312V27H175.145ZM187.763 27.308C186.678 27.308 185.725 27.0807 184.903 26.626C184.097 26.1567 183.466 25.5113 183.011 24.69C182.571 23.854 182.351 22.886 182.351 21.786V21.522C182.351 20.422 182.571 19.4613 183.011 18.64C183.466 17.804 184.097 17.1587 184.903 16.704C185.725 16.2347 186.678 16 187.763 16C188.849 16 189.795 16.2347 190.601 16.704C191.423 17.1587 192.053 17.804 192.493 18.64C192.948 19.4613 193.175 20.422 193.175 21.522V21.786C193.175 22.886 192.948 23.854 192.493 24.69C192.053 25.5113 191.423 26.1567 190.601 26.626C189.795 27.0807 188.849 27.308 187.763 27.308ZM187.763 26.12C189.025 26.12 190.022 25.724 190.755 24.932C191.489 24.1253 191.855 23.062 191.855 21.742V21.566C191.855 20.246 191.489 19.19 190.755 18.398C190.022 17.5913 189.025 17.188 187.763 17.188C186.517 17.188 185.519 17.5913 184.771 18.398C184.038 19.19 183.671 20.246 183.671 21.566V21.742C183.671 23.062 184.038 24.1253 184.771 24.932C185.519 25.724 186.517 26.12 187.763 26.12ZM200.636 27.22C199.873 27.22 199.162 27.0587 198.502 26.736C197.857 26.4133 197.336 25.9293 196.94 25.284C196.559 24.624 196.368 23.8027 196.368 22.82V16.308H197.688V22.732C197.688 23.8907 197.981 24.734 198.568 25.262C199.155 25.7753 199.939 26.032 200.922 26.032C202.022 26.032 202.939 25.6727 203.672 24.954C204.405 24.2207 204.772 23.1207 204.772 21.654V16.308H206.092V27H204.816V25.02H204.552C204.288 25.592 203.855 26.1053 203.254 26.56C202.653 27 201.78 27.22 200.636 27.22ZM209.971 27V16.308H211.247V18.288H211.511C211.775 17.716 212.208 17.21 212.809 16.77C213.41 16.3153 214.283 16.088 215.427 16.088C216.204 16.088 216.916 16.2493 217.561 16.572C218.206 16.8947 218.72 17.386 219.101 18.046C219.497 18.6913 219.695 19.5053 219.695 20.488V27H218.375V20.576C218.375 19.4027 218.082 18.5593 217.495 18.046C216.908 17.5327 216.124 17.276 215.141 17.276C214.041 17.276 213.124 17.6427 212.391 18.376C211.658 19.0947 211.291 20.1873 211.291 21.654V27H209.971ZM228.062 27.308C227.109 27.308 226.243 27.088 225.466 26.648C224.689 26.1933 224.065 25.5553 223.596 24.734C223.141 23.898 222.914 22.9153 222.914 21.786V21.522C222.914 20.3927 223.141 19.4173 223.596 18.596C224.051 17.76 224.667 17.122 225.444 16.682C226.236 16.2273 227.109 16 228.062 16C228.854 16 229.521 16.11 230.064 16.33C230.607 16.5353 231.047 16.8067 231.384 17.144C231.736 17.4667 232.007 17.8113 232.198 18.178H232.462V11.6H233.782V27H232.506V25.042H232.242C231.934 25.6287 231.45 26.1567 230.79 26.626C230.145 27.0807 229.235 27.308 228.062 27.308ZM228.37 26.12C229.587 26.12 230.57 25.7313 231.318 24.954C232.081 24.1767 232.462 23.106 232.462 21.742V21.566C232.462 20.202 232.081 19.1313 231.318 18.354C230.57 17.5767 229.587 17.188 228.37 17.188C227.167 17.188 226.185 17.5767 225.422 18.354C224.659 19.1313 224.278 20.202 224.278 21.566V21.742C224.278 23.106 224.659 24.1767 225.422 24.954C226.185 25.7313 227.167 26.12 228.37 26.12Z" fill="#A5A5A5"/>
<rect x="0.5" y="0.5" width="256" height="38" rx="9.5" stroke="white"/>
</svg>
