<svg width="243" height="144" viewBox="0 0 243 144" fill="none" xmlns="http://www.w3.org/2000/svg">
<path d="M229.577 106.387C228.107 111.015 223.892 114.729 217.112 117.355C210.345 119.976 201.216 121.43 190.319 121.65C168.539 122.09 139.987 117.595 109.851 108.022C79.7155 98.4503 53.8026 85.6454 36.2684 72.7182C27.4959 66.2507 20.879 59.7952 16.8649 53.7499C12.8427 47.6924 11.544 42.2269 13.0139 37.5992C14.4839 32.9714 18.6984 29.2572 25.4788 26.631C32.2456 24.01 41.3749 22.556 52.2715 22.336C74.0515 21.8964 102.604 26.3915 132.74 35.9636C162.875 45.5357 188.788 58.3406 206.322 71.2678C215.095 77.7353 221.712 84.1909 225.726 90.2362C229.748 96.2937 231.047 101.759 229.577 106.387Z" fill="black" stroke="#78DA42" stroke-width="2.5"/>
<path d="M94.7693 79.2773L113.596 50.8121L122.039 53.4941L120.945 87.5915L116.012 86.0246L116.31 78.0002L104.133 74.1325L99.7466 80.8582L94.7693 79.2773ZM106.753 70.0438L116.53 73.1493L117.222 55.2608L116.511 55.0349L106.753 70.0438Z" fill="#78DA42"/>
<path d="M129.344 90.2595L130.617 56.2186L135.594 57.7996L134.176 88.4481L134.754 88.6316L151.237 62.7683L156.214 64.3493L137.655 92.8991L129.344 90.2595Z" fill="#78DA42"/>
<path d="M150.504 96.9806L160.443 65.6923L180.041 71.9174L178.649 76.2977L163.851 71.5972L160.997 80.5814L174.551 84.8867L173.16 89.2671L159.606 84.9617L156.695 94.1247L171.716 98.8959L170.325 103.276L150.504 96.9806Z" fill="#78DA42"/>
<path d="M79.3967 74.9204C81.4578 75.0374 83.3923 74.8713 85.199 74.4203L85.1999 74.4201C86.7498 74.0255 88.2291 73.4872 89.6378 72.8053L89.6399 72.8043C91.0589 72.0966 92.2884 71.2587 93.3264 70.2896C94.4006 69.2989 95.1335 68.2037 95.5148 67.0033C95.8421 65.9729 95.8692 64.8787 95.6019 63.7255C95.3327 62.5638 94.6728 61.3599 93.6386 60.1141C92.9846 59.3142 92.226 58.5223 91.3632 57.7384C90.5142 56.936 89.673 56.1493 88.8395 55.3784C88.0181 54.5874 87.3024 53.8309 86.6919 53.1088C85.9788 52.2534 85.5242 51.4628 85.3139 50.7366C85.1327 49.9866 85.1412 49.3214 85.3276 48.7347C85.632 47.7763 86.3155 46.9901 87.4047 46.3806C88.5226 45.7754 89.7803 45.4456 91.1815 45.3942L91.1833 45.3941C92.3476 45.3407 93.393 45.3698 94.3202 45.4803C95.2744 45.5987 96.117 45.7748 96.8495 46.0075C98.1366 46.4163 99.1088 46.9617 99.7807 47.6346L99.7807 47.6346L99.784 47.6378C100.473 48.2971 100.902 48.9831 101.088 49.6945L101.087 49.6946L101.09 49.703C101.308 50.4096 101.318 51.0515 101.132 51.6358C100.954 52.1984 100.626 52.6337 100.145 52.9493L100.145 52.9492L100.14 52.9528C99.6979 53.2639 99.1428 53.3724 98.4544 53.2553C98.1275 53.1802 97.8327 53.1725 97.5841 53.2568C97.3983 53.3143 97.2145 53.4167 97.153 53.6103C97.1058 53.7588 97.1329 53.9071 97.2375 54.0266C97.3297 54.1319 97.4693 54.2005 97.6223 54.2491C97.7518 54.2902 97.8776 54.3154 97.9986 54.3219L97.9986 54.322L98.003 54.3221C98.5726 54.3402 99.0837 54.3112 99.5348 54.2333L99.5349 54.2335L99.5446 54.2314C99.9955 54.1302 100.416 54.0049 100.807 53.8553L100.807 53.8555L100.814 53.8524C101.929 53.3737 102.665 52.6194 102.993 51.5872C103.229 50.8449 103.229 50.0724 102.999 49.2752C102.776 48.45 102.315 47.7074 101.624 47.0474C101.084 46.4906 100.403 46.0157 99.5873 45.6204C98.8062 45.2105 97.956 44.8597 97.037 44.5679C95.9291 44.216 94.7674 43.9547 93.5522 43.7837L93.5515 43.7836C92.3601 43.6202 91.2259 43.556 90.149 43.5915C88.9081 43.6312 87.7218 43.8651 86.5911 44.2935C85.4925 44.7047 84.5407 45.2605 83.7383 45.9622L83.7383 45.9622L83.7353 45.9649C82.9526 46.6781 82.41 47.5012 82.1138 48.4336C81.8636 49.2212 81.8359 50.0736 82.0233 50.9861L82.0233 50.9861L82.0243 50.9907C82.2372 51.9169 82.7182 52.8632 83.456 53.8293C83.9711 54.5072 84.5989 55.1921 85.3381 55.8841L85.338 55.8842L85.3415 55.8872C86.0822 56.5493 86.8347 57.215 87.5987 57.8845L87.6002 57.8857C88.3836 58.5591 89.1046 59.2257 89.7632 59.8853L89.7649 59.887C90.4429 60.5502 90.9826 61.1934 91.3866 61.8162L91.3874 61.8172C91.9272 62.6375 92.235 63.4557 92.3195 64.273L92.3194 64.273L92.3201 64.2781C92.4279 65.111 92.3555 65.924 92.103 66.7192C91.6265 68.2192 90.5899 69.5669 88.9719 70.7589L88.9704 70.76C87.378 71.9574 85.4597 72.7806 83.2103 73.2258C81.7542 73.4998 80.2069 73.575 78.5676 73.4503L78.5669 73.4502C76.9507 73.3328 75.3685 73.0282 73.8201 72.5364C72.4346 72.0963 71.1577 71.5193 69.9889 70.8058C68.8239 70.0946 67.8566 69.2504 67.0846 68.274L67.0825 68.2714C66.3065 67.323 65.7809 66.2606 65.5041 65.0821C65.2603 63.8961 65.3559 62.6047 65.801 61.2035C66.18 60.0103 66.7162 58.88 67.4101 57.8122C68.103 56.7459 68.9338 55.8025 69.9029 54.9815L69.9029 54.9816L69.9053 54.9794C70.8473 54.1548 71.9236 53.5026 73.1357 53.0231C73.3564 52.9442 73.5363 52.8664 73.6694 52.7887C73.7363 52.7496 73.7968 52.7074 73.846 52.6611C73.8939 52.6159 73.9416 52.5569 73.9654 52.4822C73.9813 52.4321 73.9855 52.3755 73.9699 52.3177C73.9546 52.2609 73.9237 52.2159 73.8897 52.1819C73.8265 52.1186 73.7402 52.0808 73.6599 52.0553C73.5745 52.0282 73.441 52.0014 73.2698 51.9737L73.2698 51.9736L73.265 51.973C73.1125 51.952 72.9687 51.9503 72.8465 51.9839C71.8299 52.1264 70.803 52.4804 69.7663 53.0418C68.7579 53.5879 67.8102 54.2742 66.9233 55.0999L66.9222 55.1009C66.0684 55.9079 65.3277 56.7655 64.7006 57.6741C64.0719 58.585 63.6433 59.4736 63.4213 60.3395L63.4213 60.3398C62.8902 62.4233 62.9936 64.3667 63.7404 66.1618L63.7411 66.1634C64.4919 67.9247 65.7161 69.4652 67.4062 70.7858L67.4069 70.7863C69.1178 72.1122 71.1278 73.1405 73.4341 73.873C75.364 74.486 77.3517 74.8351 79.3967 74.9204ZM79.3967 74.9204C79.3973 74.9205 79.3978 74.9205 79.3984 74.9205L79.4067 74.7207L79.3954 74.9204C79.3958 74.9204 79.3963 74.9204 79.3967 74.9204Z" fill="#78DA42" stroke="#78DA42" stroke-width="0.4"/>
</svg>
