<svg width="1598" height="903" viewBox="0 0 1598 903" fill="none" xmlns="http://www.w3.org/2000/svg">
<path d="M79.0177 66.0304L76.2828 54.2424L79.8082 65.8186C85.0013 82.871 102.406 93.0892 119.827 89.3133L129.834 87.1445L120.084 90.2695C103.108 95.7101 93.1445 113.262 97.1733 130.626L99.9083 142.414L96.3829 130.838C91.1897 113.785 73.7849 103.567 56.3637 107.343L46.3574 109.512L56.1075 106.387C73.0826 100.946 83.0466 83.3948 79.0177 66.0304Z" fill="black" stroke="#78DA42" stroke-width="2.5"/>
<path d="M150.575 45.0549C142.169 45.8048 134.626 50.7058 130.53 58.0966C130.158 49.6546 125.591 41.9045 118.402 37.4855C126.807 36.7356 134.351 31.8346 138.447 24.4438C138.818 32.8857 143.385 40.6359 150.575 45.0549Z" fill="black" stroke="#78DA42" stroke-width="2.5"/>
<path d="M158.101 149.002C150.867 145.352 142.242 145.477 135.113 149.348C139.074 142.269 139.309 133.646 135.752 126.365C142.986 130.016 151.611 129.891 158.74 126.02C154.779 133.099 154.544 141.722 158.101 149.002Z" fill="black" stroke="#78DA42" stroke-width="2.5"/>
<path d="M107.147 892.534L41.2104 854.465L50.7027 838.024L42.4606 833.265L51.953 816.824L43.7109 812.065L53.2032 795.624L42.2137 789.279L51.7061 772.838L46.2114 769.666L50.9575 761.445L42.7154 756.687L52.2078 740.245L68.692 749.763L63.9458 757.983L72.1879 762.742L61.3307 781.547L69.5728 786.306L126.31 688.034L142.794 697.552L100.078 771.537L110.661 777.647L129.645 744.764L143.789 752.93L123.096 788.772L133.208 794.61L149.155 766.989L162.091 774.458L143.106 807.34L153.027 813.068L167.266 788.406L178.366 794.815L173.62 803.036L179.004 806.144L147.362 860.948L139.12 856.189L123.3 883.591L115.058 878.833L107.147 892.534Z" fill="white" stroke="#78DA42" stroke-width="5"/>
<circle cx="1429.98" cy="695.024" r="122.502" transform="rotate(-30 1429.98 695.024)" fill="#78DA42" stroke="black"/>
<path d="M1486.37 661.869C1504.59 693.417 1493.96 733.621 1462.69 751.679C1431.41 769.737 1391.28 758.836 1373.06 727.288C1354.85 695.74 1365.47 655.536 1396.75 637.478C1428.03 619.42 1468.16 630.32 1486.37 661.869Z" stroke="black" stroke-width="4"/>
<path d="M1365.11 678.396C1380.36 680.585 1398.01 677.227 1414.28 667.836C1430.54 658.445 1442.28 644.837 1448.01 630.534" stroke="black" stroke-width="4"/>
<path d="M1495.22 710.246C1479.42 707.637 1461.26 710.836 1444.64 720.429C1428.03 730.022 1416.17 744.155 1410.54 759.138" stroke="black" stroke-width="4"/>
<path d="M1448.93 683.484C1458.23 699.586 1464.28 715.432 1466.58 727.989C1467.74 734.276 1467.93 739.627 1467.2 743.73C1466.47 747.845 1464.87 750.419 1462.69 751.679C1460.5 752.939 1457.47 753.038 1453.54 751.615C1449.63 750.196 1445.09 747.352 1440.22 743.209C1430.5 734.934 1419.8 721.775 1410.5 705.673C1401.21 689.571 1395.16 673.725 1392.85 661.168C1391.7 654.881 1391.51 649.53 1392.24 645.427C1392.97 641.312 1394.57 638.738 1396.75 637.478C1398.93 636.218 1401.96 636.119 1405.89 637.542C1409.81 638.961 1414.35 641.805 1419.22 645.949C1428.94 654.223 1439.64 667.382 1448.93 683.484Z" stroke="black" stroke-width="4"/>
<path d="M1471.22 670.618C1480.41 686.534 1483.94 703.612 1482.32 718.31C1480.69 733.009 1473.94 745.181 1462.69 751.679C1451.43 758.178 1437.51 757.94 1423.97 751.998C1410.43 746.056 1397.41 734.455 1388.22 718.539C1379.03 702.623 1375.49 685.545 1377.12 670.847C1378.74 656.148 1385.5 643.976 1396.75 637.478C1408.01 630.979 1421.92 631.217 1435.47 637.159C1449.01 643.1 1462.03 654.702 1471.22 670.618Z" stroke="black" stroke-width="4"/>
<line x1="1370.33" y1="726.556" x2="1487.11" y2="659.137" stroke="black" stroke-width="4"/>
<path d="M1336.02 693.821L1325.36 693.384L1325.57 689.011C1325.59 688.34 1325.76 687.762 1326.05 687.255C1326.35 686.749 1326.75 686.372 1327.24 686.103C1327.73 685.834 1328.32 685.712 1329 685.743L1329.21 685.753C1329.87 685.78 1330.44 685.949 1330.92 686.271C1331.4 686.593 1331.76 687.013 1332 687.532C1332.24 688.05 1332.35 688.645 1332.33 689.288L1332.21 691.663L1336.11 691.823L1336.02 693.832L1336.02 693.821ZM1330.39 691.578L1330.48 689.403C1330.5 688.925 1330.39 688.535 1330.14 688.227C1329.89 687.919 1329.53 687.759 1329.08 687.742L1328.93 687.74C1328.48 687.723 1328.1 687.854 1327.83 688.144C1327.55 688.422 1327.4 688.8 1327.38 689.278L1327.29 691.453L1330.39 691.589L1330.39 691.578Z" fill="black"/>
<path d="M1337.21 681.485C1337.11 682.23 1336.86 682.869 1336.48 683.427C1336.1 683.984 1335.6 684.39 1334.97 684.651C1334.35 684.922 1333.64 684.995 1332.82 684.881L1332.58 684.845C1331.78 684.736 1331.11 684.465 1330.58 684.055C1330.06 683.639 1329.69 683.112 1329.47 682.479C1329.25 681.845 1329.19 681.162 1329.3 680.411C1329.41 679.661 1329.65 679.027 1330.03 678.47C1330.42 677.912 1330.92 677.506 1331.55 677.246C1332.17 676.985 1332.88 676.902 1333.69 677.016L1333.93 677.052C1334.74 677.155 1335.4 677.431 1335.93 677.841C1336.46 678.251 1336.83 678.784 1337.05 679.418C1337.27 680.051 1337.32 680.735 1337.21 681.485V681.485ZM1335.52 681.261C1335.6 680.678 1335.48 680.174 1335.16 679.734C1334.84 679.306 1334.31 679.037 1333.61 678.945L1333.47 678.925C1332.77 678.833 1332.2 678.942 1331.77 679.264C1331.34 679.586 1331.08 680.056 1331 680.646C1330.91 681.236 1331.04 681.734 1331.36 682.173C1331.68 682.602 1332.21 682.87 1332.91 682.963L1333.05 682.982C1333.75 683.075 1334.32 682.966 1334.75 682.626C1335.18 682.293 1335.44 681.834 1335.52 681.261Z" fill="black"/>
<path d="M1338.8 673.013C1338.58 673.975 1338.19 674.708 1337.62 675.226C1337.07 675.738 1336.39 675.985 1335.58 675.938L1335.53 674.125C1335.89 674.136 1336.2 674.078 1336.44 673.955C1336.67 673.832 1336.86 673.668 1336.99 673.443C1337.13 673.219 1337.23 672.969 1337.3 672.681C1337.4 672.243 1337.4 671.908 1337.29 671.665C1337.18 671.422 1337.02 671.279 1336.78 671.225C1336.55 671.172 1336.36 671.235 1336.19 671.41C1336.02 671.58 1335.84 671.875 1335.66 672.283L1335.5 672.685C1335.28 673.175 1335.03 673.611 1334.76 674.003C1334.48 674.394 1334.17 674.681 1333.8 674.863C1333.43 675.045 1333 675.088 1332.51 674.977C1331.79 674.812 1331.28 674.418 1331.01 673.799C1330.74 673.18 1330.7 672.427 1330.91 671.563C1331.1 670.74 1331.45 670.099 1331.93 669.643C1332.43 669.181 1332.99 668.93 1333.62 668.902L1333.75 670.756C1333.35 670.752 1333.06 670.85 1332.83 671.051C1332.62 671.264 1332.47 671.54 1332.38 671.897C1332.29 672.254 1332.3 672.544 1332.38 672.76C1332.46 672.976 1332.61 673.109 1332.83 673.158C1333.07 673.211 1333.27 673.153 1333.43 672.973C1333.6 672.804 1333.75 672.556 1333.87 672.236L1334.03 671.834C1334.26 671.309 1334.51 670.828 1334.78 670.425C1335.04 670.011 1335.36 669.707 1335.72 669.515C1336.08 669.322 1336.53 669.283 1337.04 669.399C1337.81 669.566 1338.35 669.987 1338.64 670.639C1338.92 671.291 1338.96 672.089 1338.74 673.034L1338.8 673.013Z" fill="black"/>
<path d="M1340.97 665.288C1340.74 666.007 1340.38 666.58 1339.89 667.036C1339.42 667.485 1338.85 667.771 1338.19 667.903C1337.53 668.034 1336.83 667.97 1336.08 667.733L1335.9 667.676C1335.14 667.439 1334.53 667.074 1334.08 666.592C1333.62 666.109 1333.33 665.566 1333.2 664.92C1333.07 664.282 1333.12 663.608 1333.35 662.89C1333.58 662.189 1333.94 661.616 1334.42 661.206C1334.9 660.784 1335.48 660.51 1336.12 660.402C1336.77 660.287 1337.46 660.358 1338.2 660.59L1338.82 660.784L1337.13 666.016C1337.63 666.149 1338.09 666.103 1338.51 665.844C1338.93 665.603 1339.23 665.226 1339.39 664.722C1339.56 664.218 1339.57 663.803 1339.43 663.488C1339.29 663.173 1339.1 662.918 1338.87 662.7L1340.14 661.457C1340.35 661.671 1340.56 661.959 1340.76 662.309C1340.96 662.66 1341.12 663.082 1341.18 663.572C1341.25 664.062 1341.18 664.639 1340.97 665.288V665.288ZM1335.77 665.572L1336.86 662.212C1336.44 662.119 1336.04 662.172 1335.69 662.387C1335.34 662.59 1335.09 662.952 1334.94 663.422C1334.78 663.908 1334.78 664.345 1334.93 664.71C1335.09 665.087 1335.37 665.364 1335.76 665.561L1335.77 665.572Z" fill="black"/>
<path d="M1345.06 654.872C1344.83 655.357 1344.55 655.755 1344.19 656.061C1343.84 656.367 1343.45 656.55 1343.01 656.629C1342.58 656.701 1342.13 656.627 1341.66 656.401C1341.19 656.175 1340.85 655.889 1340.64 655.51C1340.44 655.131 1340.35 654.717 1340.38 654.233C1340.41 653.759 1340.54 653.263 1340.79 652.754L1341.67 650.882L1341.29 650.696C1340.97 650.546 1340.66 650.52 1340.35 650.624C1340.04 650.728 1339.79 651.005 1339.59 651.443C1339.38 651.871 1339.33 652.237 1339.43 652.543C1339.53 652.849 1339.71 653.11 1339.99 653.314L1338.7 654.661C1338.41 654.389 1338.17 654.058 1338 653.677C1337.82 653.296 1337.74 652.858 1337.76 652.369C1337.77 651.88 1337.92 651.337 1338.2 650.752C1338.62 649.851 1339.2 649.242 1339.89 648.933C1340.59 648.617 1341.36 648.665 1342.21 649.066L1344.76 650.27C1345.04 650.4 1345.24 650.331 1345.35 650.074L1345.61 649.53L1347.04 650.207L1346.49 651.36C1346.33 651.699 1346.11 651.946 1345.85 652.081C1345.58 652.234 1345.31 652.234 1345.02 652.104L1344.89 652.356C1344.99 652.447 1345.09 652.594 1345.21 652.802C1345.33 653.01 1345.39 653.296 1345.39 653.631C1345.4 653.977 1345.28 654.381 1345.06 654.861L1345.06 654.872ZM1343.8 653.906C1344.04 653.42 1344.09 652.951 1343.96 652.528C1343.84 652.087 1343.55 651.77 1343.1 651.565L1342.96 651.5L1342.13 653.249C1341.98 653.571 1341.92 653.853 1341.97 654.099C1342.03 654.346 1342.17 654.524 1342.42 654.645C1342.67 654.766 1342.91 654.756 1343.17 654.638C1343.42 654.52 1343.62 654.275 1343.8 653.906Z" fill="black"/>
<path d="M1347.62 649.189L1341.13 645.353L1342.1 643.726L1342.95 644.229L1343.09 643.988C1342.92 643.748 1342.82 643.425 1342.79 643.018C1342.76 642.611 1342.92 642.113 1343.27 641.529C1343.56 641.023 1343.95 640.652 1344.41 640.402C1344.87 640.153 1345.37 640.053 1345.89 640.089C1346.41 640.125 1346.96 640.289 1347.5 640.608L1351.38 642.898L1350.39 644.549L1346.65 642.341C1346.16 642.053 1345.72 641.956 1345.33 642.048C1344.94 642.14 1344.62 642.416 1344.35 642.864C1344.05 643.371 1343.98 643.863 1344.14 644.342C1344.3 644.82 1344.7 645.232 1345.3 645.587L1348.6 647.538L1347.62 649.189V649.189Z" fill="black"/>
<path d="M1354.38 639.015C1354.03 639.497 1353.58 639.86 1353.02 640.111C1352.46 640.361 1351.86 640.427 1351.21 640.348C1350.57 640.269 1349.91 639.975 1349.24 639.483L1349.04 639.336C1348.38 638.855 1347.91 638.311 1347.63 637.71C1347.35 637.114 1347.25 636.513 1347.32 635.918C1347.39 635.324 1347.6 634.777 1347.96 634.289C1348.24 633.925 1348.5 633.642 1348.78 633.455C1349.05 633.267 1349.31 633.149 1349.55 633.083C1349.79 633.028 1350.01 633.003 1350.22 633.03L1350.38 632.804L1347.18 630.46L1348.33 628.907L1356.91 635.202L1355.79 636.725L1355.06 636.186L1354.89 636.412C1355.01 636.722 1355.06 637.088 1355.04 637.509C1355.01 637.937 1354.79 638.428 1354.38 638.987L1354.38 639.015ZM1353.38 637.562C1353.73 637.08 1353.87 636.578 1353.81 636.031C1353.74 635.484 1353.4 635.006 1352.82 634.571L1352.69 634.483C1352.1 634.048 1351.53 633.879 1351 633.969C1350.46 634.059 1350.01 634.348 1349.66 634.83C1349.32 635.306 1349.17 635.815 1349.23 636.361C1349.3 636.908 1349.64 637.386 1350.22 637.821L1350.35 637.91C1350.94 638.344 1351.51 638.513 1352.05 638.417C1352.6 638.32 1353.04 638.037 1353.4 637.566L1353.38 637.562Z" fill="black"/>
<path d="M1363.23 628.558C1362.73 629.083 1362.14 629.449 1361.51 629.67C1360.87 629.891 1360.22 629.915 1359.58 629.762C1358.93 629.609 1358.29 629.246 1357.71 628.674L1357.57 628.525C1356.98 627.96 1356.59 627.348 1356.43 626.7C1356.26 626.052 1356.27 625.404 1356.46 624.768C1356.65 624.131 1357 623.547 1357.52 623.027C1358.04 622.512 1358.55 622.157 1359.1 621.958C1359.64 621.759 1360.19 621.708 1360.73 621.777C1361.27 621.856 1361.77 622.053 1362.24 622.364L1361.23 623.971C1360.98 623.793 1360.73 623.662 1360.46 623.599C1360.18 623.536 1359.91 623.537 1359.62 623.628C1359.34 623.72 1359.05 623.896 1358.79 624.179C1358.52 624.452 1358.34 624.764 1358.24 625.1C1358.14 625.435 1358.14 625.781 1358.26 626.137C1358.38 626.493 1358.6 626.831 1358.95 627.173L1359.06 627.285C1359.4 627.616 1359.75 627.832 1360.11 627.935C1360.47 628.031 1360.81 628.039 1361.15 627.932C1361.49 627.826 1361.79 627.637 1362.06 627.365C1362.47 626.954 1362.66 626.533 1362.66 626.113C1362.65 625.693 1362.5 625.282 1362.21 624.881L1363.82 623.86C1364.13 624.33 1364.31 624.835 1364.4 625.368C1364.49 625.902 1364.45 626.45 1364.27 626.995C1364.08 627.54 1363.74 628.072 1363.24 628.597L1363.23 628.558Z" fill="black"/>
<path d="M1366.79 624.777L1361.81 619.121L1363.23 617.874L1363.8 618.515L1364 618.337C1363.89 618.038 1363.88 617.749 1363.99 617.47C1364.09 617.191 1364.27 616.941 1364.53 616.704L1365.22 616.099L1366.34 617.38L1365.63 618.009C1365.27 618.338 1365.05 618.698 1364.98 619.099C1364.92 619.501 1365.07 619.9 1365.42 620.31L1368.26 623.522L1366.82 624.792L1366.79 624.777Z" fill="black"/>
<path d="M1373.89 619.192C1373.28 619.644 1372.66 619.916 1372.01 620.013C1371.36 620.11 1370.73 620.018 1370.12 619.744C1369.51 619.47 1368.97 619.021 1368.49 618.393L1368.38 618.252C1367.9 617.624 1367.61 616.983 1367.51 616.325C1367.41 615.667 1367.5 615.049 1367.75 614.448C1368.01 613.847 1368.44 613.332 1369.04 612.869C1369.64 612.423 1370.26 612.169 1370.89 612.095C1371.52 612.022 1372.15 612.131 1372.74 612.417C1373.33 612.704 1373.86 613.142 1374.33 613.76L1374.72 614.28L1370.33 617.608C1370.66 618.002 1371.06 618.221 1371.55 618.259C1372.05 618.296 1372.49 618.155 1372.91 617.839C1373.34 617.517 1373.59 617.184 1373.65 616.845C1373.71 616.501 1373.71 616.183 1373.65 615.88L1375.4 615.584C1375.45 615.876 1375.45 616.228 1375.42 616.638C1375.4 617.049 1375.27 617.471 1375.04 617.911C1374.81 618.351 1374.43 618.778 1373.87 619.198L1373.89 619.192ZM1369.48 616.446L1372.31 614.318C1372.01 613.989 1371.66 613.83 1371.26 613.798C1370.84 613.773 1370.44 613.917 1370.05 614.22C1369.62 614.536 1369.38 614.88 1369.29 615.283C1369.21 615.68 1369.26 616.074 1369.47 616.464L1369.48 616.446Z" fill="black"/>
<path d="M1380.01 614.939C1379.55 615.217 1379.09 615.399 1378.63 615.473C1378.17 615.536 1377.74 615.489 1377.33 615.316C1376.93 615.142 1376.59 614.84 1376.32 614.397C1376.05 613.954 1375.92 613.53 1375.95 613.092C1375.98 612.664 1376.13 612.257 1376.41 611.876C1376.69 611.496 1377.07 611.143 1377.56 610.845L1379.32 609.742L1379.1 609.37C1378.9 609.076 1378.65 608.887 1378.34 608.815C1378.04 608.744 1377.68 608.834 1377.25 609.093C1376.84 609.346 1376.61 609.627 1376.52 609.939C1376.44 610.251 1376.46 610.562 1376.58 610.901L1374.76 611.338C1374.66 610.941 1374.64 610.545 1374.69 610.132C1374.75 609.72 1374.93 609.312 1375.2 608.903C1375.48 608.494 1375.9 608.122 1376.45 607.775C1377.29 607.246 1378.1 607.042 1378.85 607.149C1379.61 607.266 1380.24 607.721 1380.73 608.519L1382.22 610.901C1382.37 611.164 1382.58 611.219 1382.83 611.062L1383.34 610.735L1384.18 612.079L1383.09 612.755C1382.76 612.957 1382.46 613.044 1382.15 613.017C1381.84 612.991 1381.61 612.847 1381.45 612.59L1381.19 612.736C1381.22 612.865 1381.23 613.052 1381.21 613.28C1381.2 613.508 1381.1 613.787 1380.92 614.076C1380.74 614.371 1380.43 614.651 1379.98 614.93L1380.01 614.939ZM1379.48 613.451C1379.93 613.173 1380.24 612.807 1380.36 612.368C1380.49 611.929 1380.43 611.512 1380.16 611.08L1380.09 610.949L1378.43 611.977C1378.13 612.155 1377.93 612.383 1377.84 612.61C1377.75 612.854 1377.78 613.085 1377.92 613.309C1378.06 613.55 1378.28 613.673 1378.55 613.707C1378.82 613.741 1379.13 613.648 1379.48 613.433L1379.48 613.451Z" fill="black"/>
<path d="M1387.39 610.443C1386.95 610.669 1386.52 610.73 1386.11 610.603C1385.69 610.475 1385.36 610.183 1385.11 609.728L1383.14 605.956L1381.46 606.839L1380.73 605.437L1382.41 604.554L1381.31 602.482L1383.02 601.587L1384.11 603.659L1385.95 602.699L1386.69 604.101L1384.85 605.061L1386.67 608.524C1386.82 608.787 1387.01 608.855 1387.26 608.726L1388.55 608.049L1389.29 609.451L1387.39 610.443Z" fill="black"/>
<path d="M1393.84 607.629C1393.14 607.928 1392.47 608.038 1391.82 607.976C1391.17 607.915 1390.57 607.673 1390.05 607.257C1389.52 606.848 1389.11 606.283 1388.8 605.553L1388.74 605.386C1388.42 604.662 1388.3 603.972 1388.36 603.309C1388.42 602.647 1388.65 602.059 1389.04 601.541C1389.44 601.023 1389.99 600.614 1390.68 600.321C1391.36 600.029 1392.02 599.925 1392.66 600.01C1393.29 600.096 1393.87 600.35 1394.37 600.761C1394.88 601.184 1395.28 601.737 1395.59 602.439L1395.84 603.036L1390.78 605.214C1391.01 605.682 1391.34 605.985 1391.8 606.143C1392.27 606.296 1392.75 606.272 1393.23 606.066C1393.72 605.854 1394.04 605.595 1394.19 605.28C1394.33 604.964 1394.4 604.659 1394.41 604.346L1396.18 604.48C1396.14 604.777 1396.08 605.122 1395.95 605.516C1395.83 605.91 1395.6 606.287 1395.28 606.665C1394.95 607.043 1394.47 607.368 1393.83 607.646L1393.84 607.629ZM1390.23 603.908L1393.48 602.513C1393.26 602.13 1392.97 601.876 1392.59 601.757C1392.22 601.639 1391.78 601.672 1391.32 601.876C1390.84 602.082 1390.52 602.369 1390.35 602.731C1390.18 603.094 1390.14 603.494 1390.24 603.919L1390.23 603.908Z" fill="black"/>
<path d="M1403.66 606.955L1403.21 605.342L1407.19 604.231C1407.47 604.157 1407.55 603.976 1407.49 603.679L1406.98 601.855L1406.71 601.934C1406.68 602.129 1406.6 602.321 1406.49 602.532C1406.37 602.744 1406.18 602.943 1405.92 603.135C1405.67 603.327 1405.33 603.479 1404.89 603.603C1404.31 603.758 1403.78 603.774 1403.29 603.634C1402.79 603.495 1402.36 603.232 1402 602.829C1401.64 602.437 1401.37 601.948 1401.2 601.346L1400.01 597.009L1401.86 596.497L1403.01 600.683C1403.16 601.224 1403.41 601.606 1403.76 601.8C1404.1 601.994 1404.52 602.03 1405.03 601.885C1405.6 601.731 1405.99 601.417 1406.19 600.95C1406.4 600.494 1406.41 599.914 1406.22 599.251L1405.2 595.562L1407.04 595.05L1409.41 603.605C1409.56 604.107 1409.51 604.541 1409.31 604.923C1409.1 605.304 1408.74 605.554 1408.26 605.703L1403.67 606.994L1403.66 606.955Z" fill="black"/>
<path d="M1414.49 601.449C1413.74 601.586 1413.06 601.544 1412.41 601.363C1411.76 601.182 1411.23 600.818 1410.79 600.312C1410.35 599.805 1410.06 599.153 1409.92 598.356L1409.89 598.114C1409.75 597.317 1409.81 596.598 1410.05 595.975C1410.28 595.342 1410.68 594.823 1411.22 594.42C1411.77 594.017 1412.4 593.74 1413.14 593.62C1413.88 593.483 1414.57 593.525 1415.22 593.706C1415.86 593.904 1416.4 594.251 1416.84 594.757C1417.28 595.264 1417.57 595.916 1417.7 596.713L1417.74 596.955C1417.88 597.753 1417.82 598.471 1417.58 599.094C1417.34 599.727 1416.95 600.246 1416.41 600.649C1415.86 601.052 1415.23 601.33 1414.49 601.449V601.449ZM1414.2 599.776C1414.78 599.671 1415.23 599.399 1415.54 598.954C1415.86 598.508 1415.96 597.94 1415.83 597.239L1415.81 597.093C1415.68 596.391 1415.41 595.891 1414.96 595.578C1414.52 595.276 1414 595.167 1413.42 595.271C1412.83 595.376 1412.39 595.648 1412.07 596.093C1411.75 596.539 1411.66 597.107 1411.78 597.809L1411.81 597.955C1411.93 598.656 1412.21 599.156 1412.66 599.462C1413.11 599.775 1413.62 599.874 1414.21 599.769L1414.2 599.776Z" fill="black"/>
<path d="M1422.74 600.266C1422.15 600.314 1421.63 600.221 1421.17 599.989C1420.71 599.756 1420.34 599.416 1420.05 598.951C1419.78 598.497 1419.62 597.962 1419.57 597.346L1419.23 592.866L1421.14 592.713L1421.47 597.052C1421.51 597.611 1421.68 598.027 1421.98 598.292C1422.28 598.557 1422.69 598.656 1423.2 598.625C1423.79 598.576 1424.23 598.35 1424.52 597.935C1424.81 597.519 1424.95 596.961 1424.88 596.266L1424.6 592.441L1426.51 592.288L1427.07 599.808L1425.19 599.96L1425.12 598.976L1424.85 599.005C1424.75 599.266 1424.54 599.535 1424.22 599.804C1423.91 600.074 1423.41 600.23 1422.72 600.289L1422.74 600.266Z" fill="black"/>
<path d="M1429.06 599.787L1429.1 592.24L1430.99 592.241L1430.99 593.093L1431.26 593.093C1431.38 592.79 1431.56 592.569 1431.82 592.422C1432.07 592.276 1432.39 592.211 1432.72 592.207L1433.63 592.207L1433.63 593.905L1432.69 593.907C1432.21 593.908 1431.8 594.042 1431.49 594.294C1431.17 594.552 1431.01 594.948 1431.02 595.487L1431 599.78L1429.07 599.78L1429.06 599.787Z" fill="black"/>
<path d="M1442.2 600.66C1441.46 600.564 1440.8 600.344 1440.24 599.964C1439.69 599.585 1439.27 599.094 1439.01 598.486C1438.74 597.867 1438.65 597.157 1438.75 596.356L1438.78 596.116C1438.88 595.315 1439.14 594.64 1439.55 594.109C1439.96 593.578 1440.49 593.188 1441.13 592.967C1441.76 592.735 1442.45 592.668 1443.19 592.753C1443.94 592.848 1444.59 593.069 1445.15 593.448C1445.71 593.828 1446.12 594.319 1446.39 594.927C1446.65 595.535 1446.74 596.256 1446.65 597.057L1446.61 597.297C1446.51 598.098 1446.26 598.773 1445.84 599.304C1445.43 599.835 1444.9 600.225 1444.27 600.446C1443.63 600.667 1442.94 600.744 1442.2 600.66ZM1442.42 598.972C1443 599.043 1443.51 598.909 1443.94 598.576C1444.36 598.243 1444.62 597.727 1444.71 597.018L1444.73 596.864C1444.82 596.154 1444.7 595.594 1444.37 595.172C1444.04 594.75 1443.57 594.506 1442.98 594.424C1442.4 594.352 1441.89 594.486 1441.46 594.819C1441.04 595.152 1440.77 595.668 1440.68 596.378L1440.67 596.532C1440.58 597.241 1440.71 597.795 1441.04 598.217C1441.37 598.64 1441.84 598.883 1442.42 598.955L1442.42 598.972Z" fill="black"/>
<path d="M1448.23 601.272L1448.93 593.689L1450.79 594.125L1450 600.367L1450.27 600.43L1452.67 594.558L1455.67 595.251L1455.17 601.561L1455.44 601.623L1457.54 595.691L1459.39 596.126L1456.6 603.231L1453.5 602.511L1454 596.201L1453.73 596.138L1451.33 602.01L1448.22 601.29L1448.23 601.272Z" fill="black"/>
<path d="M1458.94 603.926L1461.48 596.808L1463.26 597.43L1462.93 598.364L1463.19 598.45C1463.39 598.244 1463.7 598.084 1464.08 597.963C1464.48 597.853 1465 597.9 1465.64 598.133C1466.19 598.326 1466.63 598.628 1466.96 599.022C1467.28 599.422 1467.49 599.886 1467.56 600.415C1467.63 600.944 1467.56 601.493 1467.35 602.097L1465.84 606.346L1464.03 605.71L1465.5 601.605C1465.69 601.071 1465.7 600.627 1465.53 600.257C1465.36 599.899 1465.03 599.635 1464.54 599.467C1463.99 599.275 1463.49 599.3 1463.05 599.566C1462.61 599.82 1462.28 600.289 1462.05 600.951L1460.76 604.574L1458.95 603.937L1458.94 603.926Z" fill="black"/>
<path d="M1472.97 609.813C1472.49 609.565 1472.1 609.26 1471.81 608.903C1471.52 608.547 1471.35 608.149 1471.29 607.715C1471.23 607.282 1471.32 606.833 1471.56 606.376C1471.79 605.919 1472.1 605.582 1472.48 605.387C1472.87 605.182 1473.29 605.11 1473.78 605.154C1474.26 605.197 1474.74 605.343 1475.25 605.601L1477.1 606.536L1477.3 606.16C1477.45 605.85 1477.49 605.535 1477.4 605.223C1477.31 604.911 1477.04 604.655 1476.61 604.438C1476.19 604.214 1475.82 604.163 1475.52 604.25C1475.21 604.337 1474.94 604.525 1474.73 604.793L1473.43 603.466C1473.72 603.181 1474.05 602.951 1474.44 602.796C1474.83 602.63 1475.27 602.569 1475.76 602.589C1476.25 602.615 1476.8 602.78 1477.37 603.079C1478.26 603.529 1478.85 604.111 1479.13 604.809C1479.42 605.517 1479.35 606.288 1478.91 607.127L1477.63 609.637C1477.49 609.906 1477.55 610.107 1477.8 610.239L1478.34 610.512L1477.61 611.925L1476.47 611.344C1476.13 611.172 1475.9 610.953 1475.76 610.684C1475.63 610.408 1475.63 610.147 1475.78 609.871L1475.52 609.728C1475.43 609.825 1475.27 609.914 1475.06 610.024C1474.85 610.145 1474.57 610.191 1474.23 610.184C1473.88 610.176 1473.48 610.06 1473 609.823L1472.97 609.813ZM1473.98 608.587C1474.46 608.835 1474.92 608.891 1475.36 608.785C1475.8 608.678 1476.13 608.396 1476.36 607.956L1476.43 607.815L1474.7 606.941C1474.39 606.773 1474.1 606.717 1473.85 606.761C1473.6 606.805 1473.42 606.953 1473.29 607.188C1473.17 607.434 1473.16 607.673 1473.26 607.933C1473.37 608.176 1473.61 608.405 1473.98 608.587V608.587Z" fill="black"/>
<path d="M1478.61 612.607L1484.12 603.465L1485.77 604.441L1480.26 613.583L1478.61 612.607Z" fill="black"/>
<path d="M1485.52 617.308C1484.96 616.918 1484.6 616.526 1484.44 616.121C1484.27 615.723 1484.2 615.353 1484.23 615.016L1484 614.854L1483.48 615.596L1481.93 614.518L1488.07 605.785L1489.64 606.879L1487.35 610.144L1487.58 610.306C1487.78 610.219 1488 610.166 1488.25 610.139C1488.5 610.112 1488.78 610.14 1489.1 610.234C1489.42 610.328 1489.75 610.5 1490.13 610.76C1490.63 611.115 1491.01 611.557 1491.26 612.097C1491.51 612.638 1491.59 613.235 1491.53 613.886C1491.45 614.543 1491.17 615.202 1490.71 615.878L1490.57 616.074C1490.09 616.746 1489.57 617.238 1488.97 617.525C1488.38 617.823 1487.79 617.945 1487.19 617.897C1486.59 617.85 1486.05 617.65 1485.55 617.296L1485.52 617.308ZM1486.01 615.609C1486.5 615.942 1487.01 616.069 1487.55 615.979C1488.09 615.9 1488.58 615.546 1489 614.952L1489.09 614.827C1489.51 614.233 1489.66 613.661 1489.58 613.128C1489.47 612.589 1489.18 612.159 1488.69 611.815C1488.2 611.482 1487.69 611.355 1487.15 611.445C1486.61 611.524 1486.12 611.878 1485.7 612.472L1485.61 612.597C1485.19 613.191 1485.04 613.762 1485.14 614.301C1485.25 614.839 1485.54 615.269 1486.02 615.62L1486.01 615.609Z" fill="black"/>
<path d="M1491.74 621.99C1491.3 621.604 1490.99 621.169 1490.84 620.684C1490.67 620.195 1490.66 619.69 1490.79 619.166C1490.91 618.642 1491.18 618.148 1491.59 617.68L1494.53 614.255L1495.99 615.504L1493.14 618.815C1492.77 619.247 1492.6 619.655 1492.63 620.062C1492.65 620.469 1492.86 620.83 1493.26 621.158C1493.7 621.545 1494.18 621.691 1494.68 621.609C1495.19 621.52 1495.66 621.218 1496.12 620.69L1498.63 617.781L1500.08 619.03L1495.13 624.765L1493.71 623.542L1494.36 622.786L1494.16 622.612C1493.9 622.73 1493.57 622.762 1493.16 622.737C1492.74 622.7 1492.28 622.468 1491.76 622.023L1491.74 621.99Z" fill="black"/>
<path d="M1496.52 625.922L1502.1 620.789L1503.38 622.168L1502.77 622.723L1502.96 622.921C1503.24 622.847 1503.54 622.862 1503.89 622.954C1504.24 623.046 1504.58 623.274 1504.91 623.651C1505.27 624.043 1505.49 624.427 1505.55 624.814C1505.63 625.196 1505.58 625.556 1505.45 625.911L1505.64 626.109C1506 626.019 1506.36 626.013 1506.73 626.092C1507.1 626.171 1507.49 626.431 1507.87 626.85C1508.19 627.193 1508.4 627.566 1508.53 627.979C1508.64 628.397 1508.62 628.812 1508.49 629.258C1508.34 629.693 1508.05 630.126 1507.6 630.545L1503.93 633.919L1502.63 632.507L1506.19 629.236C1506.5 628.956 1506.66 628.663 1506.67 628.361C1506.68 628.065 1506.55 627.772 1506.29 627.499C1505.99 627.177 1505.67 627.027 1505.29 627.039C1504.92 627.051 1504.55 627.232 1504.17 627.586L1500.88 630.612L1499.58 629.2L1503.14 625.93C1503.45 625.649 1503.6 625.356 1503.61 625.06C1503.61 624.765 1503.49 624.472 1503.23 624.198C1502.92 623.877 1502.6 623.727 1502.23 623.739C1501.85 623.751 1501.49 623.932 1501.1 624.285L1497.81 627.312L1496.51 625.9L1496.52 625.922Z" fill="black"/>
<path d="M1509.05 641.457C1508.64 640.857 1508.4 640.226 1508.32 639.555C1508.25 638.895 1508.34 638.253 1508.64 637.644C1508.93 637.036 1509.42 636.495 1510.1 636.044L1510.28 635.936C1510.96 635.456 1511.64 635.209 1512.31 635.173C1512.98 635.137 1513.62 635.279 1514.2 635.601C1514.79 635.922 1515.29 636.379 1515.7 636.989C1516.1 637.588 1516.33 638.17 1516.41 638.738C1516.49 639.307 1516.44 639.85 1516.24 640.355C1516.06 640.872 1515.76 641.322 1515.34 641.723L1513.98 640.406C1514.21 640.198 1514.39 639.977 1514.51 639.72C1514.63 639.474 1514.69 639.192 1514.66 638.905C1514.63 638.611 1514.51 638.3 1514.3 637.984C1514.09 637.668 1513.82 637.43 1513.51 637.256C1513.2 637.099 1512.86 637.035 1512.48 637.076C1512.11 637.116 1511.73 637.265 1511.32 637.529L1511.19 637.605C1510.79 637.88 1510.51 638.186 1510.33 638.51C1510.16 638.844 1510.08 639.178 1510.11 639.528C1510.14 639.879 1510.27 640.211 1510.48 640.527C1510.8 641.012 1511.17 641.285 1511.58 641.367C1512 641.449 1512.43 641.388 1512.89 641.183L1513.55 642.964C1513.03 643.161 1512.49 643.241 1511.95 643.229C1511.41 643.206 1510.88 643.057 1510.38 642.776C1509.88 642.495 1509.44 642.051 1509.03 641.452L1509.05 641.457Z" fill="black"/>
<path d="M1513.54 648.886C1513.18 648.233 1513 647.563 1512.98 646.888C1512.96 646.214 1513.12 645.591 1513.47 645.013C1513.81 644.435 1514.34 643.954 1515.05 643.558L1515.26 643.437C1515.98 643.051 1516.67 642.872 1517.34 642.893C1518.02 642.913 1518.63 643.113 1519.19 643.493C1519.74 643.873 1520.2 644.384 1520.55 645.043C1520.9 645.702 1521.1 646.366 1521.12 647.04C1521.14 647.714 1520.97 648.338 1520.63 648.915C1520.29 649.493 1519.76 649.975 1519.04 650.371L1518.83 650.492C1518.12 650.877 1517.43 651.056 1516.75 651.036C1516.08 651.015 1515.47 650.815 1514.91 650.435C1514.35 650.056 1513.91 649.539 1513.54 648.886ZM1515.04 648.066C1515.32 648.576 1515.72 648.915 1516.24 649.07C1516.75 649.225 1517.33 649.127 1517.96 648.792L1518.09 648.716C1518.72 648.382 1519.1 647.955 1519.26 647.428C1519.41 646.902 1519.35 646.395 1519.06 645.863C1518.78 645.352 1518.38 645.014 1517.86 644.859C1517.34 644.703 1516.77 644.802 1516.14 645.136L1516.01 645.212C1515.38 645.547 1514.99 645.974 1514.84 646.5C1514.69 647.026 1514.75 647.544 1515.03 648.055L1515.04 648.066Z" fill="black"/>
<path d="M1516.79 654.899L1522.78 649.672L1523.6 651.54L1518.65 655.613L1518.76 655.856L1525.11 654.994L1525.92 656.863L1518.03 657.695L1516.82 654.915L1516.79 654.899Z" fill="black"/>
<path d="M1520.15 664.051C1519.92 663.339 1519.85 662.662 1519.98 662.018C1520.11 661.374 1520.38 660.807 1520.85 660.318C1521.3 659.824 1521.91 659.457 1522.66 659.2L1522.83 659.144C1523.58 658.887 1524.29 658.815 1524.94 658.933C1525.59 659.04 1526.17 659.322 1526.65 659.758C1527.14 660.193 1527.5 660.761 1527.73 661.473C1527.96 662.174 1528.01 662.829 1527.88 663.462C1527.74 664.084 1527.44 664.636 1526.98 665.108C1526.52 665.579 1525.93 665.945 1525.2 666.195L1524.58 666.403L1522.84 661.198C1522.36 661.376 1522.02 661.704 1521.82 662.153C1521.62 662.603 1521.62 663.074 1521.78 663.581C1521.95 664.092 1522.19 664.424 1522.49 664.587C1522.79 664.75 1523.1 664.85 1523.41 664.887L1523.13 666.63C1522.83 666.581 1522.5 666.482 1522.11 666.325C1521.73 666.167 1521.37 665.923 1521.03 665.563C1520.68 665.211 1520.4 664.7 1520.17 664.056L1520.15 664.051ZM1524.18 660.746L1525.3 664.088C1525.7 663.915 1525.98 663.637 1526.13 663.259C1526.28 662.88 1526.28 662.454 1526.12 661.993C1525.96 661.504 1525.7 661.157 1525.36 660.956C1525.01 660.751 1524.62 660.685 1524.19 660.757L1524.18 660.746Z" fill="black"/>
<path d="M1521.87 668.877L1529.21 667.007L1529.66 668.835L1528.83 669.051L1528.9 669.32C1529.22 669.35 1529.49 669.476 1529.68 669.685C1529.88 669.905 1530.02 670.175 1530.11 670.504L1530.33 671.388L1528.67 671.803L1528.43 670.887C1528.32 670.411 1528.09 670.062 1527.76 669.816C1527.43 669.581 1527 669.523 1526.48 669.646L1522.31 670.712L1521.84 668.862L1521.87 668.877Z" fill="black"/>
<path d="M1530.2 679.413L1531.32 679.303L1531.43 680.482L1531.34 681.59L1531.55 681.645L1532.09 680.674L1532.87 679.757L1533.73 680.47L1532.98 681.402L1532.12 682.114L1532.23 682.3L1533.3 682.007L1534.48 681.893L1534.59 683.016L1533.4 683.13L1532.29 683.04L1532.24 683.248L1533.21 683.784L1534.12 684.555L1533.4 685.423L1532.48 684.669L1531.77 683.822L1531.59 683.93L1531.88 684.991L1531.98 686.17L1530.86 686.28L1530.75 685.1L1530.84 683.993L1530.64 683.938L1530.09 684.908L1529.32 685.825L1528.45 685.113L1529.21 684.191L1530.06 683.48L1529.95 683.294L1528.89 683.587L1527.71 683.7L1527.6 682.577L1528.79 682.464L1529.9 682.554L1529.95 682.346L1528.98 681.81L1528.07 681.038L1528.78 680.17L1529.72 680.919L1530.42 681.766L1530.61 681.657L1530.32 680.597L1530.22 679.417L1530.2 679.413Z" fill="black"/>
<path d="M1525.22 693.641L1535.88 694.016L1535.71 698.398C1535.68 699.069 1535.52 699.658 1535.23 700.147C1534.95 700.647 1534.54 701.042 1534.05 701.311C1533.55 701.586 1532.97 701.702 1532.3 701.681L1532.09 701.672C1531.42 701.645 1530.86 701.476 1530.37 701.171C1529.89 700.866 1529.52 700.435 1529.28 699.916C1529.04 699.398 1528.92 698.809 1528.95 698.166L1529.04 695.787L1525.14 695.655L1525.22 693.652L1525.22 693.641ZM1530.87 695.844L1530.78 698.012C1530.76 698.49 1530.88 698.874 1531.13 699.182C1531.39 699.49 1531.74 699.649 1532.2 699.66L1532.35 699.662C1532.8 699.68 1533.18 699.537 1533.46 699.259C1533.73 698.969 1533.88 698.591 1533.9 698.113L1533.98 695.945L1530.88 695.837L1530.87 695.844Z" fill="black"/>
<path d="M1524.09 705.996C1524.19 705.251 1524.43 704.601 1524.81 704.043C1525.2 703.486 1525.7 703.08 1526.32 702.808C1526.94 702.537 1527.65 702.464 1528.46 702.567L1528.7 702.603C1529.51 702.706 1530.17 702.966 1530.7 703.375C1531.23 703.785 1531.61 704.312 1531.83 704.946C1532.05 705.579 1532.11 706.274 1532.01 707.018C1531.91 707.762 1531.67 708.413 1531.29 708.97C1530.91 709.528 1530.41 709.934 1529.78 710.205C1529.16 710.477 1528.45 710.549 1527.64 710.446L1527.4 710.41C1526.59 710.307 1525.93 710.048 1525.4 709.638C1524.87 709.228 1524.49 708.701 1524.27 708.068C1524.05 707.434 1523.99 706.74 1524.08 706.002L1524.09 705.996ZM1525.79 706.213C1525.71 706.797 1525.83 707.301 1526.17 707.734C1526.49 708.162 1527.01 708.431 1527.72 708.517L1527.86 708.537C1528.56 708.629 1529.14 708.503 1529.57 708.181C1530 707.859 1530.25 707.395 1530.33 706.805C1530.41 706.221 1530.29 705.717 1529.95 705.284C1529.63 704.856 1529.11 704.587 1528.4 704.501L1528.25 704.488C1527.55 704.395 1526.97 704.522 1526.55 704.855C1526.12 705.188 1525.86 705.647 1525.78 706.231L1525.79 706.213Z" fill="black"/>
<path d="M1522.56 714.475C1522.78 713.52 1523.17 712.769 1523.72 712.257C1524.27 711.735 1524.95 711.488 1525.76 711.534L1525.81 713.359C1525.45 713.347 1525.15 713.406 1524.91 713.529C1524.67 713.651 1524.49 713.816 1524.36 714.04C1524.22 714.264 1524.12 714.515 1524.05 714.803C1523.95 715.241 1523.95 715.576 1524.06 715.818C1524.17 716.061 1524.33 716.205 1524.56 716.258C1524.78 716.307 1524.98 716.249 1525.16 716.073C1525.33 715.904 1525.51 715.609 1525.68 715.19L1525.85 714.788C1526.06 714.297 1526.3 713.851 1526.57 713.465C1526.84 713.074 1527.16 712.787 1527.52 712.594C1527.88 712.402 1528.31 712.358 1528.8 712.469C1529.54 712.628 1530.03 713.028 1530.3 713.647C1530.57 714.266 1530.61 715.019 1530.42 715.888C1530.23 716.711 1529.89 717.345 1529.4 717.819C1528.91 718.292 1528.35 718.532 1527.72 718.571L1527.57 716.712C1527.97 716.716 1528.27 716.618 1528.48 716.406C1528.7 716.194 1528.85 715.918 1528.93 715.567C1529.01 715.209 1529.01 714.92 1528.93 714.704C1528.85 714.487 1528.7 714.355 1528.48 714.306C1528.24 714.252 1528.04 714.31 1527.88 714.491C1527.72 714.671 1527.58 714.912 1527.44 715.239L1527.28 715.641C1527.06 716.177 1526.81 716.64 1526.54 717.06C1526.27 717.48 1525.96 717.778 1525.6 717.971C1525.24 718.174 1524.8 718.214 1524.28 718.087C1523.51 717.919 1522.97 717.498 1522.67 716.853C1522.38 716.201 1522.34 715.409 1522.55 714.471L1522.56 714.475Z" fill="black"/>
<path d="M1520.45 722.214C1520.68 721.496 1521.03 720.912 1521.51 720.462C1521.98 720.012 1522.55 719.716 1523.21 719.584C1523.87 719.452 1524.57 719.499 1525.32 719.736L1525.5 719.793C1526.26 720.03 1526.87 720.378 1527.32 720.861C1527.79 721.337 1528.08 721.887 1528.21 722.525C1528.34 723.164 1528.29 723.837 1528.07 724.549C1527.85 725.261 1527.5 725.817 1527.01 726.245C1526.52 726.673 1525.95 726.94 1525.31 727.049C1524.66 727.163 1523.97 727.11 1523.23 726.877L1522.6 726.684L1524.27 721.443C1523.76 721.309 1523.31 721.366 1522.88 721.614C1522.45 721.862 1522.17 722.243 1522.01 722.747C1521.85 723.262 1521.84 723.677 1521.99 723.986C1522.13 724.295 1522.32 724.556 1522.56 724.768L1521.3 726.022C1521.08 725.808 1520.88 725.531 1520.66 725.176C1520.46 724.825 1520.3 724.403 1520.23 723.919C1520.15 723.436 1520.23 722.852 1520.44 722.192L1520.45 722.214ZM1525.65 721.902L1524.58 725.266C1525.01 725.353 1525.39 725.296 1525.73 725.081C1526.08 724.866 1526.33 724.516 1526.47 724.042C1526.62 723.544 1526.63 723.118 1526.47 722.742C1526.31 722.365 1526.03 722.088 1525.64 721.891L1525.65 721.902Z" fill="black"/>
<path d="M1516.43 732.66C1516.66 732.174 1516.95 731.776 1517.3 731.47C1517.65 731.165 1518.04 730.97 1518.48 730.892C1518.91 730.82 1519.36 730.893 1519.83 731.102C1520.31 731.311 1520.64 731.614 1520.86 731.987C1521.07 732.359 1521.16 732.791 1521.14 733.258C1521.11 733.725 1520.98 734.227 1520.73 734.748L1519.85 736.631L1520.24 736.816C1520.56 736.967 1520.88 736.987 1521.17 736.878C1521.48 736.773 1521.73 736.497 1521.93 736.058C1522.13 735.62 1522.19 735.253 1522.09 734.958C1521.99 734.653 1521.8 734.398 1521.52 734.194L1522.8 732.836C1523.1 733.101 1523.34 733.433 1523.52 733.814C1523.69 734.194 1523.78 734.626 1523.76 735.121C1523.74 735.61 1523.61 736.158 1523.33 736.743C1522.91 737.644 1522.35 738.258 1521.65 738.574C1520.95 738.89 1520.18 738.852 1519.32 738.458L1516.76 737.277C1516.48 737.147 1516.28 737.216 1516.16 737.473L1515.91 738.028L1514.47 737.369L1515.02 736.205C1515.18 735.866 1515.39 735.625 1515.66 735.484C1515.93 735.331 1516.21 735.331 1516.49 735.461L1516.62 735.208C1516.52 735.118 1516.42 734.971 1516.3 734.762C1516.18 734.554 1516.12 734.269 1516.11 733.94C1516.1 733.594 1516.21 733.196 1516.43 732.717L1516.43 732.66ZM1517.7 733.609C1517.46 734.094 1517.42 734.557 1517.54 734.998C1517.68 735.432 1517.96 735.749 1518.41 735.96L1518.55 736.025L1519.37 734.265C1519.52 733.943 1519.57 733.651 1519.52 733.404C1519.46 733.158 1519.32 732.98 1519.07 732.859C1518.82 732.738 1518.58 732.747 1518.32 732.865C1518.07 732.983 1517.86 733.235 1517.69 733.598L1517.7 733.609Z" fill="black"/>
<path d="M1513.9 738.386L1520.42 742.175L1519.47 743.807L1518.61 743.31L1518.47 743.551C1518.64 743.791 1518.74 744.114 1518.76 744.521C1518.79 744.928 1518.64 745.425 1518.3 746.014C1518.01 746.521 1517.63 746.902 1517.17 747.152C1516.71 747.402 1516.22 747.512 1515.68 747.483C1515.15 747.453 1514.61 747.283 1514.08 746.964L1510.18 744.698L1511.15 743.042L1514.91 745.226C1515.4 745.514 1515.84 745.611 1516.23 745.502C1516.61 745.398 1516.94 745.134 1517.2 744.692C1517.5 744.185 1517.57 743.693 1517.39 743.21C1517.22 742.738 1516.83 742.319 1516.22 741.971L1512.9 740.044L1513.87 738.388L1513.9 738.386Z" fill="black"/>
<path d="M1507.21 748.561C1507.56 748.079 1508.02 747.716 1508.57 747.455C1509.12 747.193 1509.73 747.121 1510.38 747.2C1511.03 747.279 1511.69 747.567 1512.35 748.048L1512.55 748.183C1513.21 748.665 1513.69 749.202 1513.96 749.793C1514.25 750.388 1514.35 750.983 1514.29 751.578C1514.22 752.172 1514.02 752.713 1513.66 753.212C1513.39 753.586 1513.12 753.859 1512.85 754.046C1512.57 754.233 1512.32 754.351 1512.08 754.418C1511.83 754.473 1511.61 754.498 1511.4 754.471L1511.24 754.697L1514.46 757.017L1513.33 758.574L1504.71 752.345L1505.82 750.811L1506.56 751.35L1506.72 751.124C1506.59 750.82 1506.54 750.454 1506.57 750.015C1506.59 749.594 1506.81 749.086 1507.21 748.533L1507.21 748.561ZM1508.22 750.008C1507.88 750.484 1507.73 750.992 1507.81 751.533C1507.89 752.073 1508.22 752.569 1508.81 752.986L1508.93 753.075C1509.52 753.509 1510.09 753.667 1510.63 753.571C1511.18 753.474 1511.62 753.191 1511.97 752.699C1512.31 752.223 1512.46 751.714 1512.38 751.174C1512.3 750.634 1511.98 750.149 1511.38 749.721L1511.25 749.632C1510.66 749.198 1510.09 749.046 1509.56 749.136C1509.01 749.233 1508.57 749.515 1508.22 749.997L1508.22 750.008Z" fill="black"/>
<path d="M1498.41 759.106C1498.92 758.581 1499.49 758.204 1500.12 757.989C1500.75 757.768 1501.4 757.734 1502.05 757.88C1502.71 758.026 1503.33 758.385 1503.93 758.961L1504.08 759.105C1504.67 759.67 1505.06 760.282 1505.24 760.923C1505.42 761.565 1505.41 762.213 1505.21 762.855C1505.01 763.492 1504.66 764.076 1504.16 764.601C1503.65 765.126 1503.14 765.482 1502.59 765.681C1502.04 765.879 1501.51 765.941 1500.97 765.873C1500.43 765.804 1499.91 765.603 1499.44 765.292L1500.45 763.674C1500.7 763.851 1500.96 763.977 1501.23 764.039C1501.5 764.102 1501.77 764.091 1502.07 764.01C1502.35 763.919 1502.63 763.731 1502.89 763.459C1503.16 763.187 1503.35 762.874 1503.43 762.534C1503.52 762.194 1503.52 761.842 1503.41 761.497C1503.29 761.141 1503.07 760.803 1502.72 760.461L1502.61 760.349C1502.27 760.018 1501.91 759.802 1501.55 759.705C1501.19 759.609 1500.83 759.608 1500.5 759.725C1500.17 759.831 1499.87 760.02 1499.6 760.303C1499.2 760.726 1499 761.147 1499.01 761.567C1499.02 761.986 1499.17 762.397 1499.47 762.793L1497.86 763.824C1497.56 763.354 1497.37 762.849 1497.27 762.322C1497.18 761.788 1497.22 761.241 1497.39 760.691C1497.57 760.135 1497.91 759.603 1498.4 759.084L1498.41 759.106Z" fill="black"/>
<path d="M1494.88 762.896L1499.91 768.516L1498.49 769.774L1497.92 769.139L1497.71 769.317C1497.82 769.616 1497.85 769.91 1497.74 770.189C1497.64 770.468 1497.46 770.718 1497.2 770.955L1496.51 771.571L1495.38 770.296L1496.09 769.668C1496.46 769.338 1496.68 768.978 1496.74 768.577C1496.8 768.176 1496.66 767.776 1496.29 767.373L1493.44 764.184L1494.87 762.903L1494.88 762.896Z" fill="black"/>
<path d="M1487.83 768.53C1488.43 768.067 1489.06 767.795 1489.71 767.698C1490.36 767.601 1490.99 767.686 1491.6 767.949C1492.21 768.212 1492.75 768.661 1493.24 769.283L1493.35 769.424C1493.83 770.053 1494.12 770.687 1494.22 771.345C1494.32 772.003 1494.26 772.626 1493.98 773.222C1493.73 773.823 1493.3 774.349 1492.7 774.812C1492.11 775.269 1491.49 775.523 1490.86 775.597C1490.22 775.67 1489.61 775.572 1489.01 775.292C1488.41 775.022 1487.87 774.573 1487.4 773.967L1487 773.452L1491.37 770.098C1491.04 769.704 1490.63 769.485 1490.14 769.448C1489.65 769.41 1489.2 769.552 1488.78 769.885C1488.35 770.218 1488.11 770.551 1488.05 770.889C1488 771.228 1487.99 771.551 1488.07 771.859L1486.32 772.166C1486.27 771.874 1486.25 771.518 1486.28 771.107C1486.31 770.697 1486.43 770.275 1486.66 769.824C1486.88 769.373 1487.27 768.946 1487.82 768.525L1487.83 768.53ZM1492.26 771.252L1489.44 773.402C1489.75 773.724 1490.09 773.89 1490.5 773.915C1490.91 773.93 1491.32 773.797 1491.71 773.494C1492.13 773.178 1492.37 772.823 1492.45 772.426C1492.53 772.029 1492.47 771.642 1492.26 771.252V771.252Z" fill="black"/>
<path d="M1481.76 772.814C1482.21 772.525 1482.67 772.343 1483.14 772.28C1483.59 772.206 1484.04 772.258 1484.43 772.437C1484.84 772.611 1485.18 772.913 1485.45 773.339C1485.74 773.775 1485.85 774.205 1485.84 774.638C1485.81 775.059 1485.66 775.472 1485.38 775.864C1485.1 776.244 1484.72 776.598 1484.25 776.9L1482.49 778.013L1482.71 778.386C1482.91 778.68 1483.16 778.869 1483.48 778.934C1483.79 779.006 1484.16 778.909 1484.57 778.656C1484.98 778.403 1485.22 778.122 1485.3 777.81C1485.39 777.498 1485.36 777.176 1485.24 776.855L1487.05 776.407C1487.16 776.798 1487.17 777.2 1487.11 777.612C1487.06 778.024 1486.89 778.444 1486.61 778.853C1486.33 779.262 1485.92 779.645 1485.37 779.991C1484.53 780.521 1483.73 780.735 1482.98 780.629C1482.22 780.522 1481.59 780.068 1481.09 779.276L1479.59 776.9C1479.44 776.637 1479.22 776.599 1478.98 776.739L1478.47 777.067L1477.62 775.728L1478.71 775.042C1479.03 774.84 1479.33 774.753 1479.64 774.779C1479.95 774.805 1480.18 774.939 1480.34 775.196L1480.59 775.049C1480.56 774.921 1480.55 774.74 1480.57 774.495C1480.59 774.249 1480.68 773.977 1480.85 773.688C1481.02 773.399 1481.34 773.112 1481.79 772.823L1481.76 772.814ZM1482.3 774.296C1481.85 774.585 1481.56 774.944 1481.43 775.383C1481.3 775.823 1481.37 776.25 1481.64 776.664L1481.72 776.796L1483.37 775.757C1483.67 775.567 1483.87 775.351 1483.95 775.113C1484.04 774.869 1484.01 774.638 1483.87 774.414C1483.73 774.19 1483.51 774.05 1483.24 774.016C1482.97 773.981 1482.66 774.075 1482.32 774.3L1482.3 774.296Z" fill="black"/>
<path d="M1474.41 777.365C1474.84 777.128 1475.28 777.077 1475.69 777.205C1476.11 777.333 1476.45 777.618 1476.68 778.08L1478.69 781.832L1480.36 780.939L1481.11 782.335L1479.44 783.228L1480.54 785.294L1478.84 786.2L1477.74 784.134L1475.91 785.116L1475.17 783.721L1476.99 782.739L1475.15 779.288C1475 779.025 1474.81 778.958 1474.56 779.087L1473.27 779.774L1472.52 778.379L1474.41 777.376L1474.41 777.365Z" fill="black"/>
<path d="M1467.97 780.218C1468.66 779.919 1469.33 779.798 1469.98 779.86C1470.63 779.921 1471.22 780.151 1471.75 780.561C1472.28 780.96 1472.7 781.536 1473.02 782.253L1473.09 782.419C1473.41 783.143 1473.54 783.828 1473.48 784.49C1473.42 785.152 1473.2 785.745 1472.8 786.269C1472.41 786.788 1471.87 787.201 1471.18 787.5C1470.5 787.803 1469.84 787.907 1469.2 787.822C1468.56 787.737 1468 787.494 1467.48 787.078C1466.96 786.672 1466.55 786.108 1466.25 785.406L1465.99 784.809L1471.03 782.599C1470.81 782.13 1470.47 781.827 1470 781.675C1469.53 781.523 1469.07 781.557 1468.57 781.77C1468.08 781.982 1467.76 782.241 1467.62 782.567C1467.48 782.882 1467.41 783.199 1467.4 783.512L1465.63 783.395C1465.65 783.104 1465.73 782.753 1465.86 782.359C1465.98 781.965 1466.2 781.588 1466.52 781.199C1466.84 780.81 1467.32 780.491 1467.95 780.213L1467.97 780.218ZM1471.6 783.909L1468.35 785.332C1468.57 785.715 1468.87 785.969 1469.25 786.081C1469.64 786.194 1470.06 786.156 1470.52 785.963C1471.01 785.757 1471.33 785.47 1471.5 785.107C1471.67 784.744 1471.7 784.345 1471.6 783.926L1471.6 783.909Z" fill="black"/>
<path d="M1458.14 780.966L1458.6 782.573L1454.64 783.705C1454.37 783.79 1454.27 783.978 1454.36 784.262L1454.88 786.097L1455.14 786.018C1455.16 785.83 1455.24 785.637 1455.37 785.419C1455.49 785.202 1455.67 785.009 1455.93 784.817C1456.19 784.625 1456.53 784.473 1456.97 784.349C1457.53 784.183 1458.07 784.167 1458.56 784.307C1459.05 784.446 1459.49 784.703 1459.85 785.095C1460.21 785.487 1460.48 785.975 1460.65 786.578L1461.89 790.906L1460.03 791.436L1458.84 787.258C1458.69 786.717 1458.43 786.341 1458.09 786.141C1457.74 785.947 1457.31 785.917 1456.83 786.066C1456.26 786.232 1455.87 786.546 1455.67 787.013C1455.47 787.479 1455.46 788.042 1455.64 788.723L1456.68 792.405L1454.83 792.935L1452.4 784.401C1452.26 783.899 1452.29 783.471 1452.5 783.083C1452.71 782.701 1453.06 782.441 1453.55 782.302L1458.13 780.99L1458.14 780.966Z" fill="black"/>
<path d="M1447.37 786.531C1448.11 786.393 1448.8 786.419 1449.45 786.617C1450.09 786.815 1450.64 787.156 1451.08 787.662C1451.52 788.168 1451.82 788.814 1451.96 789.622L1452.01 789.858C1452.16 790.649 1452.1 791.368 1451.86 792.001C1451.63 792.635 1451.24 793.153 1450.71 793.56C1450.18 793.968 1449.53 794.241 1448.79 794.372C1448.06 794.503 1447.36 794.484 1446.72 794.286C1446.08 794.098 1445.52 793.747 1445.09 793.241C1444.65 792.735 1444.35 792.089 1444.2 791.28L1444.16 791.045C1444.01 790.254 1444.06 789.535 1444.3 788.902C1444.54 788.268 1444.93 787.75 1445.46 787.342C1446 786.928 1446.64 786.661 1447.37 786.531ZM1447.68 788.209C1447.09 788.313 1446.65 788.596 1446.33 789.042C1446.02 789.487 1445.94 790.06 1446.06 790.751L1446.08 790.897C1446.21 791.598 1446.49 792.091 1446.95 792.398C1447.39 792.7 1447.91 792.792 1448.5 792.688C1449.08 792.583 1449.52 792.3 1449.84 791.855C1450.16 791.409 1450.24 790.837 1450.12 790.146L1450.09 790C1449.97 789.298 1449.68 788.805 1449.22 788.498C1448.77 788.203 1448.26 788.093 1447.69 788.202L1447.68 788.209Z" fill="black"/>
<path d="M1439.09 787.79C1439.68 787.742 1440.2 787.834 1440.67 788.061C1441.13 788.293 1441.5 788.633 1441.79 789.081C1442.07 789.528 1442.24 790.063 1442.28 790.679L1442.65 795.158L1440.74 795.328L1440.38 790.991C1440.33 790.421 1440.15 790.012 1439.86 789.758C1439.56 789.492 1439.15 789.393 1438.62 789.431C1438.03 789.479 1437.6 789.716 1437.31 790.132C1437.02 790.547 1436.9 791.1 1436.95 791.8L1437.26 795.624L1435.35 795.795L1434.74 788.271L1436.62 788.103L1436.71 789.091L1436.98 789.062C1437.08 788.8 1437.3 788.532 1437.61 788.262C1437.93 787.993 1438.42 787.826 1439.1 787.766L1439.09 787.79Z" fill="black"/>
<path d="M1432.8 788.307L1432.81 795.856L1430.92 795.866L1430.92 795.02L1430.64 795.021C1430.52 795.323 1430.34 795.545 1430.08 795.691C1429.83 795.837 1429.52 795.913 1429.18 795.906L1428.27 795.906L1428.27 794.198L1429.22 794.19C1429.7 794.188 1430.11 794.055 1430.42 793.803C1430.74 793.544 1430.89 793.149 1430.89 792.609L1430.88 788.318L1432.8 788.307V788.307Z" fill="black"/>
<path d="M1419.66 787.507C1420.41 787.585 1421.06 787.823 1421.62 788.185C1422.18 788.548 1422.61 789.049 1422.87 789.657C1423.15 790.27 1423.24 790.98 1423.14 791.781L1423.11 792.015C1423.02 792.816 1422.76 793.49 1422.35 794.032C1421.95 794.574 1421.41 794.954 1420.78 795.186C1420.15 795.418 1419.46 795.495 1418.71 795.417C1417.96 795.339 1417.31 795.101 1416.75 794.739C1416.19 794.376 1415.77 793.886 1415.5 793.267C1415.22 792.654 1415.14 791.944 1415.23 791.143L1415.27 790.903C1415.37 790.102 1415.62 789.427 1416.03 788.885C1416.44 788.344 1416.97 787.964 1417.6 787.732C1418.23 787.5 1418.92 787.423 1419.67 787.501L1419.66 787.507ZM1419.46 789.2C1418.87 789.128 1418.37 789.273 1417.94 789.595C1417.51 789.928 1417.25 790.444 1417.17 791.147L1417.16 791.301C1417.08 792.005 1417.2 792.565 1417.53 792.987C1417.86 793.409 1418.33 793.653 1418.92 793.718C1419.51 793.789 1420.01 793.644 1420.44 793.322C1420.87 793 1421.13 792.474 1421.21 791.77L1421.22 791.616C1421.3 790.913 1421.18 790.353 1420.83 789.926C1420.49 789.51 1420.04 789.26 1419.44 789.195L1419.46 789.2Z" fill="black"/>
<path d="M1413.62 786.947L1412.96 794.543L1411.11 794.125L1411.86 787.874L1411.59 787.811L1409.23 793.703L1406.22 793.027L1406.68 786.715L1406.41 786.652L1404.35 792.605L1402.49 792.187L1405.23 785.068L1408.34 785.771L1407.88 792.084L1408.16 792.146L1410.52 786.265L1413.62 786.958L1413.62 786.947Z" fill="black"/>
<path d="M1402.88 784.363L1400.39 791.5L1398.61 790.89L1398.94 789.956L1398.68 789.869C1398.48 790.075 1398.18 790.247 1397.79 790.356C1397.4 790.466 1396.87 790.419 1396.23 790.204C1395.68 790.011 1395.23 789.715 1394.9 789.322C1394.57 788.928 1394.37 788.458 1394.29 787.935C1394.21 787.412 1394.28 786.846 1394.48 786.259L1395.96 782L1397.78 782.62L1396.35 786.734C1396.15 787.268 1396.15 787.722 1396.32 788.081C1396.49 788.434 1396.82 788.697 1397.3 788.871C1397.85 789.064 1398.36 789.021 1398.79 788.756C1399.23 788.501 1399.56 788.032 1399.79 787.359L1401.06 783.732L1402.88 784.352L1402.88 784.363Z" fill="black"/>
<path d="M1388.82 778.568C1389.3 778.805 1389.69 779.104 1389.99 779.461C1390.28 779.817 1390.46 780.209 1390.52 780.642C1390.58 781.075 1390.49 781.524 1390.26 781.993C1390.02 782.45 1389.72 782.787 1389.34 782.992C1388.95 783.198 1388.53 783.27 1388.05 783.237C1387.58 783.204 1387.09 783.047 1386.58 782.801L1384.73 781.883L1384.53 782.258C1384.37 782.569 1384.34 782.884 1384.44 783.189C1384.54 783.495 1384.8 783.758 1385.24 783.968C1385.67 784.174 1386.03 784.243 1386.34 784.149C1386.66 784.056 1386.92 783.875 1387.13 783.606L1388.44 784.927C1388.16 785.223 1387.83 785.442 1387.44 785.608C1387.05 785.774 1386.62 785.847 1386.12 785.815C1385.62 785.795 1385.09 785.635 1384.51 785.342C1383.61 784.893 1383.02 784.328 1382.73 783.619C1382.44 782.911 1382.51 782.14 1382.93 781.296L1384.21 778.776C1384.35 778.506 1384.29 778.305 1384.04 778.173L1383.5 777.9L1384.22 776.493L1385.35 777.064C1385.69 777.236 1385.93 777.448 1386.06 777.724C1386.2 777.993 1386.19 778.261 1386.06 778.541L1386.05 778.548L1386.32 778.684C1386.41 778.588 1386.56 778.488 1386.77 778.378C1386.98 778.257 1387.27 778.211 1387.61 778.201C1387.95 778.197 1388.36 778.324 1388.83 778.551L1388.82 778.568ZM1387.82 779.806C1387.34 779.568 1386.88 779.501 1386.44 779.625C1386 779.743 1385.67 780.025 1385.44 780.465L1385.37 780.605L1387.1 781.463C1387.41 781.619 1387.7 781.686 1387.95 781.631C1388.2 781.587 1388.38 781.44 1388.5 781.194C1388.63 780.947 1388.63 780.698 1388.52 780.455C1388.41 780.212 1388.17 779.982 1387.81 779.812L1387.82 779.806Z" fill="black"/>
<path d="M1383.16 775.815L1377.72 784.993L1376.06 784.024L1381.5 774.846L1383.15 775.822L1383.16 775.815Z" fill="black"/>
<path d="M1376.19 771.146C1376.75 771.526 1377.11 771.929 1377.29 772.327C1377.46 772.725 1377.52 773.096 1377.51 773.426L1377.73 773.588L1378.25 772.834L1379.81 773.896L1373.72 782.671L1372.14 781.583L1374.41 778.313L1374.18 778.152C1373.98 778.238 1373.76 778.291 1373.52 778.329C1373.28 778.367 1372.99 778.328 1372.68 778.245C1372.37 778.162 1372.01 777.986 1371.65 777.73C1371.14 777.393 1370.77 776.951 1370.52 776.41C1370.26 775.869 1370.17 775.268 1370.25 774.622C1370.32 773.964 1370.59 773.3 1371.06 772.618L1371.2 772.422C1371.67 771.74 1372.2 771.258 1372.79 770.949C1373.38 770.651 1373.97 770.53 1374.56 770.566C1375.17 770.614 1375.72 770.807 1376.21 771.151L1376.19 771.146ZM1375.71 772.856C1375.22 772.523 1374.71 772.397 1374.16 772.493C1373.63 772.583 1373.13 772.926 1372.72 773.531L1372.63 773.656C1372.22 774.261 1372.05 774.821 1372.16 775.36C1372.26 775.898 1372.56 776.328 1373.05 776.672C1373.54 777.005 1374.05 777.132 1374.6 777.036C1375.13 776.946 1375.62 776.603 1376.04 775.998L1376.13 775.873C1376.54 775.268 1376.7 774.697 1376.59 774.158C1376.49 773.62 1376.19 773.179 1375.71 772.856V772.856Z" fill="black"/>
<path d="M1369.98 766.521C1370.43 766.901 1370.73 767.331 1370.89 767.82C1371.06 768.31 1371.07 768.814 1370.95 769.338C1370.82 769.863 1370.56 770.35 1370.16 770.829L1367.24 774.27L1365.78 773.038L1368.6 769.711C1368.97 769.28 1369.14 768.86 1369.12 768.465C1369.1 768.069 1368.88 767.696 1368.49 767.369C1368.03 766.988 1367.57 766.847 1367.06 766.935C1366.55 767.024 1366.09 767.336 1365.63 767.865L1363.13 770.796L1361.67 769.564L1366.57 763.798L1368.01 765.014L1367.37 765.764L1367.57 765.938C1367.83 765.82 1368.17 765.782 1368.58 765.807C1369 765.833 1369.47 766.07 1369.98 766.503L1369.98 766.521Z" fill="black"/>
<path d="M1365.15 762.615L1359.62 767.785L1358.32 766.412L1358.92 765.847L1358.73 765.648C1358.45 765.723 1358.15 765.725 1357.81 765.626C1357.48 765.528 1357.13 765.306 1356.79 764.947C1356.42 764.561 1356.21 764.171 1356.12 763.796C1356.05 763.414 1356.08 763.043 1356.21 762.695L1356.02 762.497C1355.67 762.598 1355.3 762.604 1354.93 762.514C1354.56 762.434 1354.17 762.175 1353.78 761.756C1353.47 761.412 1353.25 761.04 1353.13 760.627C1353.01 760.215 1353.03 759.793 1353.17 759.347C1353.31 758.902 1353.6 758.486 1354.05 758.067L1357.69 754.678L1359 756.072L1355.45 759.376C1355.14 759.656 1354.99 759.949 1354.98 760.245C1354.98 760.541 1355.1 760.834 1355.37 761.118C1355.67 761.429 1356.01 761.583 1356.36 761.567C1356.73 761.544 1357.1 761.362 1357.48 761.009L1360.75 757.967L1362.06 759.362L1358.51 762.665C1358.2 762.945 1358.05 763.239 1358.04 763.534C1358.04 763.83 1358.16 764.123 1358.43 764.407C1358.73 764.718 1359.07 764.873 1359.42 764.856C1359.79 764.833 1360.16 764.651 1360.54 764.298L1363.81 761.256L1365.12 762.651L1365.15 762.615Z" fill="black"/>
<path d="M1352.54 747.176C1352.94 747.775 1353.19 748.407 1353.28 749.071C1353.36 749.725 1353.26 750.367 1352.97 750.986C1352.69 751.589 1352.21 752.13 1351.52 752.598L1351.34 752.706C1350.66 753.186 1349.98 753.443 1349.31 753.479C1348.64 753.515 1348.01 753.385 1347.43 753.063C1346.84 752.742 1346.35 752.285 1345.93 751.692C1345.53 751.093 1345.28 750.517 1345.2 749.949C1345.12 749.381 1345.18 748.838 1345.37 748.321C1345.55 747.804 1345.85 747.354 1346.25 746.96L1347.63 748.271C1347.4 748.478 1347.22 748.711 1347.1 748.957C1346.98 749.214 1346.93 749.478 1346.96 749.783C1346.98 750.077 1347.11 750.381 1347.32 750.697C1347.54 751.013 1347.81 751.251 1348.12 751.419C1348.43 751.576 1348.78 751.639 1349.15 751.599C1349.53 751.559 1349.91 751.41 1350.31 751.135L1350.44 751.059C1350.84 750.773 1351.12 750.477 1351.3 750.143C1351.47 749.808 1351.54 749.464 1351.5 749.12C1351.46 748.776 1351.34 748.437 1351.13 748.121C1350.8 747.636 1350.43 747.37 1350.01 747.288C1349.6 747.206 1349.17 747.278 1348.72 747.482L1348.04 745.696C1348.56 745.5 1349.09 745.409 1349.63 745.432C1350.19 745.449 1350.7 745.593 1351.2 745.885C1351.7 746.166 1352.16 746.603 1352.57 747.203L1352.54 747.176Z" fill="black"/>
<path d="M1347.99 739.779C1348.35 740.432 1348.54 741.095 1348.56 741.769C1348.59 742.444 1348.43 743.061 1348.09 743.649C1347.75 744.227 1347.22 744.72 1346.51 745.116L1346.3 745.237C1345.59 745.622 1344.89 745.819 1344.22 745.798C1343.54 745.778 1342.93 745.577 1342.38 745.209C1341.83 744.84 1341.36 744.307 1340.98 743.661C1340.62 743.008 1340.43 742.344 1340.41 741.67C1340.39 740.996 1340.54 740.378 1340.88 739.79C1341.22 739.201 1341.75 738.72 1342.46 738.323L1342.67 738.203C1343.38 737.806 1344.08 737.621 1344.75 737.641C1345.43 737.662 1346.04 737.862 1346.59 738.231C1347.14 738.599 1347.61 739.121 1347.97 739.774L1347.99 739.779ZM1346.5 740.609C1346.21 740.105 1345.82 739.761 1345.29 739.612C1344.77 739.457 1344.2 739.555 1343.58 739.9L1343.44 739.977C1342.82 740.322 1342.43 740.749 1342.28 741.264C1342.13 741.773 1342.2 742.302 1342.49 742.823C1342.78 743.328 1343.17 743.672 1343.69 743.821C1344.21 743.976 1344.78 743.878 1345.41 743.533L1345.54 743.456C1346.16 743.111 1346.55 742.684 1346.7 742.158C1346.85 741.632 1346.78 741.12 1346.5 740.609Z" fill="black"/>
<path d="M1344.68 733.78L1338.74 739.055L1337.91 737.193L1342.85 733.088L1342.73 732.845L1336.4 733.757L1335.57 731.895L1343.47 731.006L1344.7 733.784L1344.68 733.78Z" fill="black"/>
<path d="M1341.28 724.643C1341.52 725.348 1341.58 726.032 1341.46 726.669C1341.34 727.306 1341.06 727.881 1340.61 728.374C1340.16 728.868 1339.55 729.246 1338.81 729.502L1338.63 729.559C1337.88 729.815 1337.18 729.899 1336.52 729.787C1335.87 729.68 1335.29 729.415 1334.8 728.98C1334.31 728.545 1333.95 727.983 1333.71 727.271C1333.47 726.576 1333.42 725.904 1333.55 725.288C1333.68 724.673 1333.97 724.11 1334.44 723.638C1334.89 723.155 1335.48 722.801 1336.21 722.54L1336.84 722.325L1338.61 727.511C1339.09 727.322 1339.44 727.005 1339.63 726.545C1339.82 726.096 1339.83 725.624 1339.66 725.124C1339.48 724.612 1339.25 724.281 1338.95 724.118C1338.65 723.955 1338.34 723.855 1338.03 723.829L1338.3 722.08C1338.59 722.13 1338.93 722.229 1339.31 722.386C1339.69 722.533 1340.06 722.788 1340.41 723.141C1340.76 723.494 1341.04 723.987 1341.28 724.643V724.643ZM1337.26 727.97L1336.12 724.64C1335.72 724.824 1335.44 725.102 1335.29 725.481C1335.15 725.859 1335.15 726.279 1335.31 726.757C1335.48 727.246 1335.73 727.593 1336.08 727.787C1336.43 727.982 1336.82 728.048 1337.26 727.97V727.97Z" fill="black"/>
<path d="M1339.52 719.824L1332.2 721.745L1331.73 719.923L1332.56 719.707L1332.5 719.439C1332.17 719.408 1331.91 719.282 1331.71 719.073C1331.52 718.864 1331.37 718.584 1331.28 718.254L1331.06 717.377L1332.71 716.951L1332.94 717.867C1333.07 718.336 1333.28 718.691 1333.62 718.937C1333.94 719.173 1334.38 719.231 1334.9 719.091L1339.06 718.003L1339.54 719.857L1339.52 719.824Z" fill="black"/>
<path d="M1331.13 709.384L1330.01 709.505L1329.89 708.331L1329.98 707.224L1329.78 707.169L1329.25 708.133L1328.48 709.055L1327.62 708.342L1328.37 707.41L1329.23 706.698L1329.12 706.512L1328.06 706.816L1326.88 706.929L1326.77 705.806L1327.95 705.682L1329.06 705.772L1329.11 705.564L1328.15 705.039L1327.23 704.285L1327.95 703.417L1328.88 704.165L1329.59 705.012L1329.78 704.904L1329.48 703.85L1329.36 702.676L1330.48 702.566L1330.6 703.74L1330.51 704.847L1330.72 704.902L1331.25 703.938L1332.01 703.016L1332.88 703.729L1332.12 704.661L1331.27 705.373L1331.38 705.559L1332.43 705.255L1333.61 705.13L1333.72 706.254L1332.54 706.378L1331.43 706.288L1331.37 706.496L1332.34 707.021L1333.26 707.775L1332.54 708.643L1331.61 707.895L1330.9 707.048L1330.71 707.156L1331.01 708.21L1331.13 709.384Z" fill="black"/>
<path d="M1278.73 733.992C1289.24 727.767 1295.67 716.32 1295.5 704.09C1301.48 714.764 1312.77 721.461 1324.98 721.597C1314.47 727.822 1308.04 739.27 1308.21 751.499C1302.24 740.825 1290.94 734.128 1278.73 733.992Z" fill="black" stroke="white" stroke-width="2.5"/>
<path d="M1321.06 667.661C1315.3 668.411 1310.13 671.677 1306.98 676.556C1306.33 670.783 1303.16 665.555 1298.34 662.315C1304.1 661.564 1309.27 658.299 1312.42 653.419C1313.07 659.193 1316.24 664.421 1321.06 667.661Z" fill="black" stroke="white" stroke-width="2.5"/>
</svg>
