<svg width="475" height="497" viewBox="0 0 475 497" fill="none" xmlns="http://www.w3.org/2000/svg">
<path d="M0 170C0 153.431 13.4315 140 30 140H113V346H30C13.4315 346 0 332.569 0 316V170Z" fill="#A5A5A5"/>
<path d="M113 140L239.83 29.0238C252.762 17.7086 273 26.8922 273 44.0754V450.625C273 468.165 252.029 477.209 239.273 465.17L113 346V140Z" fill="#A5A5A5"/>
<path d="M387 85C431.652 119.275 461 177.251 461 243C461 308.749 431.652 366.725 387 401" stroke="#A5A5A5" stroke-width="28" stroke-linecap="round"/>
<path d="M346 134C376.17 157.537 396 197.349 396 242.5C396 287.651 376.17 327.463 346 351" stroke="#A5A5A5" stroke-width="28" stroke-linecap="round"/>
</svg>
